<?xml version="1.0" encoding="UTF-8"?>
<svg version="1.1" xmlns="http://www.w3.org/2000/svg" width="600" height="168">
<path d="M0 0 C198 0 396 0 600 0 C600 55.44 600 110.88 600 168 C402 168 204 168 0 168 C0 112.56 0 57.12 0 0 Z " fill="#FDFDFE" transform="translate(0,0)"/>
<path d="M0 0 C2.62890625 0.359375 2.62890625 0.359375 4.2890625 2.40625 C4.75183594 3.29828125 5.21460938 4.1903125 5.69140625 5.109375 C7.65282456 8.82574654 9.64978084 11.4122832 12.62890625 14.359375 C12.62890625 15.019375 12.62890625 15.679375 12.62890625 16.359375 C13.36109375 16.606875 14.09328125 16.854375 14.84765625 17.109375 C18.73995377 18.8587222 21.29317719 21.55895843 24.34765625 24.484375 C26.70033894 26.4180868 28.75998934 27.38960027 31.62890625 28.359375 C31.68286103 29.98401342 31.7216782 31.60916041 31.75390625 33.234375 C31.77710937 34.13929687 31.8003125 35.04421875 31.82421875 35.9765625 C31.62890625 38.359375 31.62890625 38.359375 29.62890625 40.359375 C28.82453125 40.66875 28.02015625 40.978125 27.19140625 41.296875 C24.65825404 42.3472064 23.39744829 43.31158948 21.62890625 45.359375 C22.33015625 45.215 23.03140625 45.070625 23.75390625 44.921875 C26.70446766 44.34459125 29.66160776 43.84242359 32.62890625 43.359375 C32.95890625 42.369375 33.28890625 41.379375 33.62890625 40.359375 C35.60890625 40.359375 37.58890625 40.359375 39.62890625 40.359375 C39.95890625 39.369375 40.28890625 38.379375 40.62890625 37.359375 C41.59828125 36.946875 42.56765625 36.534375 43.56640625 36.109375 C46.99301113 34.58477326 46.99301113 34.58477326 48.00390625 30.671875 C48.21015625 29.57875 48.41640625 28.485625 48.62890625 27.359375 C51.59890625 27.029375 54.56890625 26.699375 57.62890625 26.359375 C58.25174362 35.42511894 58.25174362 35.42511894 55.87890625 38.984375 C53.62890625 40.359375 53.62890625 40.359375 49.62890625 40.359375 C49.29890625 41.349375 48.96890625 42.339375 48.62890625 43.359375 C44.29557292 46.359375 44.29557292 46.359375 41.62890625 46.359375 C42.09296875 47.5040625 42.09296875 47.5040625 42.56640625 48.671875 C43.30784218 50.54727177 43.99118842 52.44622152 44.62890625 54.359375 C47.26890625 54.689375 49.90890625 55.019375 52.62890625 55.359375 C52.87890625 60.984375 52.87890625 60.984375 50.62890625 64.359375 C48.96611298 65.3658025 47.29907141 66.36522907 45.62890625 67.359375 C42.94870233 69.74177849 41.77353017 70.92550323 40.62890625 74.359375 C39.96890625 74.359375 39.30890625 74.359375 38.62890625 74.359375 C38.62890625 75.019375 38.62890625 75.679375 38.62890625 76.359375 C36.64890625 76.359375 34.66890625 76.359375 32.62890625 76.359375 C32.05140625 75.286875 31.47390625 74.214375 30.87890625 73.109375 C27.68863361 67.58774928 24.89854381 65.06927615 18.62890625 63.359375 C18.62890625 61.379375 18.62890625 59.399375 18.62890625 57.359375 C16.97890625 57.359375 15.32890625 57.359375 13.62890625 57.359375 C13.29890625 58.349375 12.96890625 59.339375 12.62890625 60.359375 C10.98921875 60.5140625 10.98921875 60.5140625 9.31640625 60.671875 C5.70170069 60.94210299 5.70170069 60.94210299 4.3359375 62.8984375 C1.63160244 65.21290275 -0.90816701 64.56977083 -4.37109375 64.421875 C-9.71849364 64.05460098 -9.71849364 64.05460098 -14.37109375 66.359375 C-16.2722168 66.58642578 -16.2722168 66.58642578 -18.3828125 66.5546875 C-19.51879883 66.54501953 -19.51879883 66.54501953 -20.67773438 66.53515625 C-21.85625977 66.51001953 -21.85625977 66.51001953 -23.05859375 66.484375 C-23.85587891 66.47535156 -24.65316406 66.46632813 -25.47460938 66.45703125 C-27.44023275 66.43349085 -29.4057015 66.39762047 -31.37109375 66.359375 C-31.86609375 63.884375 -31.86609375 63.884375 -32.37109375 61.359375 C-31.118125 61.29878906 -29.86515625 61.23820312 -28.57421875 61.17578125 C-26.92316651 61.09135244 -25.2721254 61.00670561 -23.62109375 60.921875 C-22.79609375 60.88255859 -21.97109375 60.84324219 -21.12109375 60.80273438 C-20.321875 60.76083984 -19.52265625 60.71894531 -18.69921875 60.67578125 C-17.96606445 60.63912354 -17.23291016 60.60246582 -16.47753906 60.56469727 C-14.3593177 60.35822715 -12.41914815 59.92805414 -10.37109375 59.359375 C-10.04109375 57.709375 -9.71109375 56.059375 -9.37109375 54.359375 C-10.36109375 54.359375 -11.35109375 54.359375 -12.37109375 54.359375 C-12.37109375 53.039375 -12.37109375 51.719375 -12.37109375 50.359375 C-13.19287109 49.98425781 -13.19287109 49.98425781 -14.03125 49.6015625 C-16.82175927 48.12012352 -19.26313199 46.35551887 -21.80859375 44.484375 C-22.73542969 43.80632812 -23.66226563 43.12828125 -24.6171875 42.4296875 C-25.52597656 41.74648437 -26.43476562 41.06328125 -27.37109375 40.359375 C-28.2940625 39.69164062 -29.21703125 39.02390625 -30.16796875 38.3359375 C-33.20185104 35.61405019 -33.1427069 33.31808032 -33.37109375 29.359375 C-35.02109375 29.689375 -36.67109375 30.019375 -38.37109375 30.359375 C-38.37109375 28.709375 -38.37109375 27.059375 -38.37109375 25.359375 C-37.05109375 25.359375 -35.73109375 25.359375 -34.37109375 25.359375 C-34.37109375 26.019375 -34.37109375 26.679375 -34.37109375 27.359375 C-33.71109375 27.359375 -33.05109375 27.359375 -32.37109375 27.359375 C-32.24992187 26.79347656 -32.12875 26.22757813 -32.00390625 25.64453125 C-31.83632813 24.91105469 -31.66875 24.17757812 -31.49609375 23.421875 C-31.33367188 22.69097656 -31.17125 21.96007812 -31.00390625 21.20703125 C-30.37109375 19.359375 -30.37109375 19.359375 -28.37109375 18.359375 C-26.03816041 18.31617253 -23.70408035 18.31915109 -21.37109375 18.359375 C-20.05109375 18.359375 -18.73109375 18.359375 -17.37109375 18.359375 C-16.71109375 17.699375 -16.05109375 17.039375 -15.37109375 16.359375 C-14.38109375 16.359375 -13.39109375 16.359375 -12.37109375 16.359375 C-12.04109375 14.709375 -11.71109375 13.059375 -11.37109375 11.359375 C-10.38109375 11.029375 -9.39109375 10.699375 -8.37109375 10.359375 C-7.30392671 8.56004921 -7.30392671 8.56004921 -6.37109375 6.359375 C-2.93216261 0.44441344 -2.93216261 0.44441344 0 0 Z " fill="#E1E2FE" transform="translate(79.37109375,62.640625)"/>
<path d="M0 0 C1.79244141 0.01740234 1.79244141 0.01740234 3.62109375 0.03515625 C5.41740234 0.04869141 5.41740234 0.04869141 7.25 0.0625 C8.17683594 0.07410156 9.10367188 0.08570313 10.05859375 0.09765625 C10.0817184 9.72878337 10.09950946 19.35990099 10.11040592 28.99104977 C10.11563449 33.46271174 10.12273164 37.93435478 10.1340332 42.40600586 C10.14486304 46.71777598 10.15087079 51.02952784 10.15347099 55.3413105 C10.15532507 56.99001923 10.15894535 58.63872691 10.16432381 60.2874279 C10.17153553 62.58869497 10.17258464 64.88988565 10.17211914 67.19116211 C10.17433975 68.50354355 10.17656036 69.81592499 10.17884827 71.16807556 C10.05859375 74.09765625 10.05859375 74.09765625 9.05859375 75.09765625 C7.06059803 75.19639441 5.05902217 75.22737424 3.05859375 75.22265625 C1.96546875 75.22523438 0.87234375 75.2278125 -0.25390625 75.23046875 C-2.94140625 75.09765625 -2.94140625 75.09765625 -3.94140625 74.09765625 C-3.98204457 72.4314851 -3.98412725 70.7637753 -3.94140625 69.09765625 C-4.40546875 69.53078125 -4.86953125 69.96390625 -5.34765625 70.41015625 C-12.78149258 76.40160643 -19.88365556 75.69780169 -28.94140625 75.09765625 C-28.94140625 74.43765625 -28.94140625 73.77765625 -28.94140625 73.09765625 C-30.05515625 73.00484375 -30.05515625 73.00484375 -31.19140625 72.91015625 C-35.94831598 71.50470565 -37.76146022 67.61168282 -40.03515625 63.46484375 C-42.23022926 59.00395458 -42.52602498 55.19828681 -42.37890625 50.28515625 C-42.36424316 49.49979492 -42.34958008 48.71443359 -42.33447266 47.90527344 C-42.08451712 40.16461234 -41.55075248 32.45768479 -36.06640625 26.53515625 C-30.58601365 22.26045003 -26.11414698 21.7342189 -19.37890625 21.72265625 C-18.62416016 21.69816406 -17.86941406 21.67367187 -17.09179688 21.6484375 C-13.45654984 21.62922034 -11.43804453 21.68144186 -8.6015625 24.05859375 C-7.77978516 25.06792969 -7.77978516 25.06792969 -6.94140625 26.09765625 C-5.95140625 26.42765625 -4.96140625 26.75765625 -3.94140625 27.09765625 C-3.94664307 26.31527588 -3.95187988 25.53289551 -3.95727539 24.72680664 C-3.97797731 21.20459792 -3.99104463 17.68240195 -4.00390625 14.16015625 C-4.01228516 12.92845703 -4.02066406 11.69675781 -4.02929688 10.42773438 C-4.03251953 9.25791016 -4.03574219 8.08808594 -4.0390625 6.8828125 C-4.04429932 5.7987915 -4.04953613 4.71477051 -4.05493164 3.59790039 C-3.89032257 -0.02739318 -3.67639188 0.12205816 0 0 Z " fill="#5F47FE" transform="translate(256.94140625,53.90234375)"/>
<path d="M0 0 C15.51 0 31.02 0 47 0 C47 3.63 47 7.26 47 11 C36.11 11 25.22 11 14 11 C14.33 16.28 14.66 21.56 15 27 C28.86 27.495 28.86 27.495 43 28 C43 31.63 43 35.26 43 39 C33.43 39 23.86 39 14 39 C14 45.93 14 52.86 14 60 C25.22 60 36.44 60 48 60 C48 63.3 48 66.6 48 70 C47 71 47 71 45.09544373 71.12025452 C44.26271439 71.11803391 43.42998505 71.11581329 42.57202148 71.11352539 C41.61791382 71.11340454 40.66380615 71.11328369 39.68078613 71.11315918 C38.67108765 71.10804321 37.66138916 71.10292725 36.62109375 71.09765625 C35.69816528 71.09664917 34.77523682 71.09564209 33.82434082 71.09460449 C30.36204799 71.08935494 26.8997728 71.07539381 23.4375 71.0625 C15.703125 71.041875 7.96875 71.02125 0 71 C0 47.57 0 24.14 0 0 Z " fill="#654EFE" transform="translate(158,58)"/>
<path d="M0 0 C15.51 0 31.02 0 47 0 C47 3.3 47 6.6 47 10 C46 11 46 11 42.94897461 11.11352539 C41.60008729 11.11336634 40.25119386 11.10767612 38.90234375 11.09765625 C37.83905602 11.09553383 37.83905602 11.09553383 36.75428772 11.09336853 C34.48198288 11.08775443 32.20977525 11.07519963 29.9375 11.0625 C28.40039204 11.05748681 26.86328255 11.05292359 25.32617188 11.04882812 C21.55071333 11.0386297 17.77546596 11.01905732 14 11 C14 16.61 14 22.22 14 28 C23.57 28 33.14 28 43 28 C43 31.63 43 35.26 43 39 C33.43 39 23.86 39 14 39 C14 45.93 14 52.86 14 60 C25.22 60 36.44 60 48 60 C48 63.63 48 67.26 48 71 C41.32479118 71.02464296 34.6496086 71.04283267 27.97436523 71.05493164 C25.70157409 71.05997325 23.4287862 71.06680637 21.15600586 71.07543945 C17.89696449 71.08751261 14.63796583 71.09322987 11.37890625 71.09765625 C10.35599991 71.10281754 9.33309357 71.10797882 8.27919006 71.11329651 C7.33829025 71.11337204 6.39739044 71.11344757 5.42797852 71.11352539 C4.59524918 71.115746 3.76251984 71.11796661 2.90455627 71.12025452 C1 71 1 71 0 70 C-0.09429342 67.82194281 -0.11742538 65.6407872 -0.11352539 63.46069336 C-0.11367142 62.77779739 -0.11381744 62.09490143 -0.1139679 61.39131165 C-0.11326876 59.12412386 -0.1054764 56.85701726 -0.09765625 54.58984375 C-0.09579207 53.02185613 -0.09436817 51.45386793 -0.09336853 49.88587952 C-0.08954334 45.75123497 -0.07971306 41.61662534 -0.06866455 37.48199463 C-0.05665582 32.52524283 -0.05204819 27.56847939 -0.04621124 22.61171722 C-0.03650129 15.07445384 -0.01734477 7.53726712 0 0 Z " fill="#654EFE" transform="translate(354,58)"/>
<path d="M0 0 C0.77666016 -0.01160156 1.55332031 -0.02320312 2.35351562 -0.03515625 C8.29872902 -0.00495195 12.29127308 1.40923143 17.125 5 C22.82003096 12.46245437 21.9375 19.94479736 21.9375 29.375 C10.7175 29.705 -0.5025 30.035 -12.0625 30.375 C-11.22787965 35.08558562 -11.22787965 35.08558562 -10.0625 38.375 C-6.54589 39.80042201 -2.55791288 39.69474176 1.1875 39.9375 C2.45078125 40.02128906 3.7140625 40.10507813 5.015625 40.19140625 C6.46195313 40.28228516 6.46195313 40.28228516 7.9375 40.375 C7.9375 39.715 7.9375 39.055 7.9375 38.375 C9.625 36.6875 9.625 36.6875 11.9375 35.375 C15.91764684 35.57911009 18.65061042 37.21504399 21.9375 39.375 C22 41.9375 22 41.9375 20.9375 45.375 C16.67907994 49.77656023 12.21738512 53.2494023 5.9375 53.375 C5.09058594 53.39949219 4.24367188 53.42398438 3.37109375 53.44921875 C-11.10514931 53.70526114 -11.10514931 53.70526114 -17.0625 48.375 C-17.92875 47.88 -18.795 47.385 -19.6875 46.875 C-22.33703313 45.20161065 -23.57173166 44.13292143 -25.0625 41.375 C-25.63848327 38.59980786 -25.91886941 36.18846983 -26.0625 33.375 C-26.12695312 32.20710938 -26.19140625 31.03921875 -26.2578125 29.8359375 C-26.54538616 20.26932027 -25.80888025 13.22707717 -19.25 6 C-13.83085363 0.5649617 -7.25447468 -0.10890788 0 0 Z " fill="#614AFF" transform="translate(543.0625,76.625)"/>
<path d="M0 0 C0.83015625 -0.02900391 1.6603125 -0.05800781 2.515625 -0.08789062 C8.22219139 -0.14602962 13.48720655 0.33417916 17.875 4.3125 C21.46096971 11.11934335 20.32366252 20.92106758 20.5 28.375 C20.53826971 29.7311424 20.57732633 31.08726282 20.6171875 32.44335938 C20.71084107 35.73294104 20.7965686 39.02252612 20.875 42.3125 C22.855 42.3125 24.835 42.3125 26.875 42.3125 C26.875 45.6125 26.875 48.9125 26.875 52.3125 C15.72494861 52.83973535 15.72494861 52.83973535 10.875 49.3125 C6.87991876 48.87534944 6.87991876 48.87534944 4.6171875 51.2734375 C1.11796601 53.87542271 -1.79377899 54.00107502 -6 53.9375 C-6.71164307 53.93347168 -7.42328613 53.92944336 -8.15649414 53.92529297 C-12.42711549 53.76109503 -15.28919839 53.22561494 -18.5625 50.4375 C-22.91366183 45.73415536 -22.69742722 40.98474283 -22.671875 34.75 C-22.06144018 30.91298115 -21.49012993 29.85771048 -18.4375 27.5625 C-13.19235128 24.44109323 -7.83385785 22.94052495 -1.875 21.75 C2.3231378 21.23238385 2.3231378 21.23238385 5.875 19.3125 C5.91580783 17.31291636 5.91754356 15.31204746 5.875 13.3125 C-4.94392218 12.55742189 -4.94392218 12.55742189 -14.125 17.3125 C-16.3125 17.3125 -16.3125 17.3125 -18.125 16.3125 C-20.95102292 13.38554769 -21.125 12.56144725 -21.125 8.3125 C-19.0078125 6.42578125 -19.0078125 6.42578125 -16.25 4.625 C-15.34507812 4.02300781 -14.44015625 3.42101562 -13.5078125 2.80078125 C-8.88663179 -0.08556277 -5.35865216 0.06070981 0 0 Z " fill="#6750FE" transform="translate(433.125,75.6875)"/>
<path d="M0 0 C2.96005006 0.23699747 4.5044047 0.42745701 6.484375 2.71484375 C6.90203125 3.44832031 7.3196875 4.18179688 7.75 4.9375 C12.35624031 12.38842102 19.15338245 22.00683493 27.75 24.9375 C30 26 30 26 31 28.4375 C31 31 31 31 29.73046875 32.5859375 C28 34 28 34 24.3125 35.1875 C17.97670665 37.37750621 13.63730567 42.54404149 10 48 C9.34 48 8.68 48 8 48 C7.896875 48.7425 7.79375 49.485 7.6875 50.25 C6.93269698 53.26921207 6.2394222 54.84055717 4 57 C1.390625 57.10546875 1.390625 57.10546875 -1 57 C-1.23332031 56.48953125 -1.46664062 55.9790625 -1.70703125 55.453125 C-4.34121268 50.20337826 -7.56263798 45.93612466 -11.5 41.625 C-11.96253174 41.11356445 -12.42506348 40.60212891 -12.90161133 40.07519531 C-15.68832013 37.09862934 -18.42700959 34.94611334 -22 33 C-23.875 31.5625 -23.875 31.5625 -25 30 C-24.79296875 28.046875 -24.79296875 28.046875 -24 26 C-22.43359375 24.76171875 -22.43359375 24.76171875 -20.4375 23.6875 C-11.23815703 18.29648719 -3.97950937 11.4282828 -1 1 C-0.67 0.67 -0.34 0.34 0 0 Z " fill="#685AFE" transform="translate(77,67)"/>
<path d="M0 0 C1.45212891 -0.01063477 1.45212891 -0.01063477 2.93359375 -0.02148438 C8.57328565 0.02839045 14.847588 0.160088 19.125 4.4375 C19.5625 6.6875 19.5625 6.6875 19.125 9.4375 C16.4375 12.3125 16.4375 12.3125 13.125 14.4375 C8.93895349 14.25145349 8.93895349 14.25145349 7.125 12.4375 C4.77186445 12.36478259 2.41666332 12.35379132 0.0625 12.375 C-1.22785156 12.38402344 -2.51820313 12.39304687 -3.84765625 12.40234375 C-4.84667969 12.41394531 -5.84570312 12.42554687 -6.875 12.4375 C-7.205 14.4175 -7.535 16.3975 -7.875 18.4375 C-7.23691406 18.57027344 -6.59882813 18.70304687 -5.94140625 18.83984375 C-5.11511719 19.01644531 -4.28882813 19.19304687 -3.4375 19.375 C-2.20193359 19.63603516 -2.20193359 19.63603516 -0.94140625 19.90234375 C1.125 20.4375 1.125 20.4375 2.125 21.4375 C3.47496694 21.70926577 4.8302708 21.95469911 6.1875 22.1875 C11.10016807 23.22671825 15.27955497 25.16834782 19.125 28.4375 C19.125 29.0975 19.125 29.7575 19.125 30.4375 C19.785 30.4375 20.445 30.4375 21.125 30.4375 C21.17918326 32.52054538 21.21787551 34.60399768 21.25 36.6875 C21.27320313 37.84765625 21.29640625 39.0078125 21.3203125 40.203125 C21.13340315 43.29834389 20.82542545 44.89574906 19.125 47.4375 C10.90940836 53.66143306 1.08570498 54.34832648 -8.875 53.4375 C-11.80300522 52.69374393 -14.13858816 51.75097768 -16.875 50.4375 C-16.875 49.7775 -16.875 49.1175 -16.875 48.4375 C-17.803125 48.004375 -17.803125 48.004375 -18.75 47.5625 C-20.875 46.4375 -20.875 46.4375 -22.875 44.4375 C-22.60941476 40.58651402 -20.31456652 38.27054499 -17.875 35.4375 C-13.28131296 36.07551209 -13.28131296 36.07551209 -11.15625 37.96875 C-7.92785508 40.04730564 -5.42192893 39.73047025 -1.625 39.625 C-0.36171875 39.59792969 0.9015625 39.57085937 2.203125 39.54296875 C3.64945312 39.49076172 3.64945312 39.49076172 5.125 39.4375 C5.455 37.7875 5.785 36.1375 6.125 34.4375 C3.155 33.7775 0.185 33.1175 -2.875 32.4375 C-2.875 31.7775 -2.875 31.1175 -2.875 30.4375 C-4.855 30.4375 -6.835 30.4375 -8.875 30.4375 C-8.875 29.7775 -8.875 29.1175 -8.875 28.4375 C-9.596875 28.355 -10.31875 28.2725 -11.0625 28.1875 C-15.04641232 27.12512338 -17.82375162 25.15772462 -19.9921875 21.609375 C-21.60558578 17.64012968 -21.54344654 13.63234307 -20.875 9.4375 C-18.6875 6.5625 -18.6875 6.5625 -15.875 4.4375 C-14.88693359 3.39529297 -14.88693359 3.39529297 -13.87890625 2.33203125 C-9.37061177 -0.51130142 -5.2191092 -0.10686419 0 0 Z " fill="#644DFE" transform="translate(487.875,76.5625)"/>
<path d="M0 0 C0 3.96 0 7.92 0 12 C0.99902344 11.98839844 1.99804688 11.97679688 3.02734375 11.96484375 C4.31769531 11.95582031 5.60804688 11.94679688 6.9375 11.9375 C8.22527344 11.92589844 9.51304687 11.91429688 10.83984375 11.90234375 C14 12 14 12 15 13 C15.09851171 14.83115883 15.12972629 16.66619933 15.125 18.5 C15.12886719 20.00046875 15.12886719 20.00046875 15.1328125 21.53125 C15 24 15 24 14 25 C9.71 25 5.42 25 1 25 C1 34.24 1 43.48 1 53 C5.29 53 9.58 53 14 53 C15.60725635 56.21451269 15.05748185 59.43612536 15 63 C12.703463 64.1482685 11.41686833 64.11561175 8.8671875 64.09765625 C8.06152344 64.09443359 7.25585938 64.09121094 6.42578125 64.08789062 C5.16314453 64.07532227 5.16314453 64.07532227 3.875 64.0625 C3.02550781 64.05798828 2.17601562 64.05347656 1.30078125 64.04882812 C-0.79950909 64.03702874 -2.8997633 64.01909306 -5 64 C-5 63.34 -5 62.68 -5 62 C-6.32 62 -7.64 62 -9 62 C-9 61.34 -9 60.68 -9 60 C-9.66 60 -10.32 60 -11 60 C-15.72891778 52.62735653 -15.47683683 46.08490152 -15.25 37.5 C-15.23195313 36.200625 -15.21390625 34.90125 -15.1953125 33.5625 C-15.14842615 30.37422849 -15.08280893 27.187507 -15 24 C-17.31 24 -19.62 24 -22 24 C-22 20.04 -22 16.08 -22 12 C-20.02 12 -18.04 12 -16 12 C-16.02320313 11.37351562 -16.04640625 10.74703125 -16.0703125 10.1015625 C-16.09738281 8.87566406 -16.09738281 8.87566406 -16.125 7.625 C-16.14820313 6.81289062 -16.17140625 6.00078125 -16.1953125 5.1640625 C-16 3 -16 3 -14 1 C-12.01171875 0.5859375 -12.01171875 0.5859375 -9.6875 0.375 C-8.54861328 0.26285156 -8.54861328 0.26285156 -7.38671875 0.1484375 C-4.92873121 -0.00443243 -2.46273668 0 0 0 Z " fill="#5F47FE" transform="translate(327,64)"/>
<path d="M0 0 C4.29 0 8.58 0 13 0 C13 17.16 13 34.32 13 52 C8.71 52 4.42 52 0 52 C0 34.84 0 17.68 0 0 Z " fill="#6750FF" transform="translate(282,77)"/>
<path d="M0 0 C4.38631229 0.08600612 7.27645662 0.32783704 10.6875 3.3125 C14.39386275 7.54834314 14.86162302 11.16112697 14.9375 16.6875 C14.96328125 17.80898437 14.9890625 18.93046875 15.015625 20.0859375 C14.5820158 24.34976129 12.91939449 26.81280236 10.25 30.0625 C6.60858366 32.97563307 2.1665664 32.62682045 -2.3125 32.3125 C-6.31859424 30.85573846 -7.17215714 29.58834632 -9.125 25.75 C-11.67435032 17.796027 -10.84783892 9.83725808 -7.3125 2.3125 C-4.73034328 -0.26965672 -3.58546873 0.01455535 0 0 Z " fill="#F8F7FE" transform="translate(239.3125,86.6875)"/>
<path d="M0 0 C0.72265625 1.69140625 0.72265625 1.69140625 1 4 C-3.98431467 12.30719111 -11.06007668 18.07600543 -19.36328125 22.7890625 C-21.31638528 23.99155375 -21.31638528 23.99155375 -22 27 C-21.01 27.33 -20.02 27.66 -19 28 C-19 28.66 -19 29.32 -19 30 C-17.90365234 30.36158203 -17.90365234 30.36158203 -16.78515625 30.73046875 C-8.02191761 34.72493236 -1.4226652 44.27220373 2 53 C3.65 53 5.3 53 7 53 C7.23074219 52.48050781 7.46148437 51.96101563 7.69921875 51.42578125 C9.89245584 46.73589483 12.11869232 43.5202558 16 40 C16.54914063 39.40960938 17.09828125 38.81921875 17.6640625 38.2109375 C21.18774087 34.43889414 23.78872684 32.14393801 29 31 C26.75953952 34.4196502 24.4943212 35.95454369 21 38 C18.31979608 40.38240349 17.14462392 41.56612823 16 45 C18.97 45 21.94 45 25 45 C24.67 46.32 24.34 47.64 24 49 C22.02 49 20.04 49 18 49 C17.67 49.99 17.34 50.98 17 52 C14.68895182 53.05047644 12.35416349 54.05007438 10 55 C9.34 55.66 8.68 56.32 8 57 C4.41394891 57.14219781 0.8713819 56.99367551 -2.71484375 56.875 C-6.1445918 56.71891605 -6.1445918 56.71891605 -9 59 C-10.90112305 59.22705078 -10.90112305 59.22705078 -13.01171875 59.1953125 C-13.76904297 59.18886719 -14.52636719 59.18242187 -15.30664062 59.17578125 C-16.09232422 59.15902344 -16.87800781 59.14226562 -17.6875 59.125 C-18.48478516 59.11597656 -19.28207031 59.10695312 -20.10351562 59.09765625 C-22.069139 59.07411585 -24.03460775 59.03824547 -26 59 C-26.33 57.35 -26.66 55.7 -27 54 C-25.74703125 53.93941406 -24.4940625 53.87882812 -23.203125 53.81640625 C-21.55207276 53.73197744 -19.90103165 53.64733061 -18.25 53.5625 C-17.425 53.52318359 -16.6 53.48386719 -15.75 53.44335938 C-14.95078125 53.40146484 -14.1515625 53.35957031 -13.328125 53.31640625 C-12.5949707 53.27974854 -11.86181641 53.24309082 -11.10644531 53.20532227 C-8.98822395 52.99885215 -7.0480544 52.56867914 -5 52 C-4.67 50.35 -4.34 48.7 -4 47 C-4.99 47 -5.98 47 -7 47 C-7.2475 45.9275 -7.495 44.855 -7.75 43.75 C-9.92320226 37.23039322 -14.21955501 35.16992145 -20 32 C-23.4375 30.0625 -23.4375 30.0625 -26 28 C-26.5625 25.375 -26.5625 25.375 -26 23 C-25.01 22.34 -24.02 21.68 -23 21 C-22.74984127 17.41642759 -22.74984127 17.41642759 -23 14 C-22.25234375 14.04640625 -21.5046875 14.0928125 -20.734375 14.140625 C-14.65744122 14.58471109 -14.65744122 14.58471109 -9.4375 12 C-8.963125 11.34 -8.48875 10.68 -8 10 C-7.34 10 -6.68 10 -6 10 C-5.87625 9.360625 -5.7525 8.72125 -5.625 8.0625 C-5.315625 7.0415625 -5.315625 7.0415625 -5 6 C-4.34 5.67 -3.68 5.34 -3 5 C-1.9590934 3.35857037 -0.95495674 1.69287785 0 0 Z " fill="#A0C4FD" transform="translate(74,70)"/>
<path d="M0 0 C3.07227658 0.33784485 4.63716707 0.65641943 6.9140625 2.8125 C7.76097656 3.8953125 7.76097656 3.8953125 8.625 5 C11.18867204 8.3250419 11.18867204 8.3250419 15 10 C15 14 15 14 13.390625 15.74609375 C12.68421875 16.30425781 11.9778125 16.86242187 11.25 17.4375 C8.6832282 19.53799756 6.75778532 21.3076781 4.6875 23.9375 C3.8521875 24.9584375 3.8521875 24.9584375 3 26 C2.01 26 1.02 26 0 26 C-1.46484375 24.171875 -1.46484375 24.171875 -2.9375 21.75 C-5.03111738 18.43467073 -7.04006996 15.61839965 -10 13 C-8.44396229 9.18063472 -6.04395069 6.73955562 -3 4 C-2.34 4 -1.68 4 -1 4 C-0.67 2.68 -0.34 1.36 0 0 Z " fill="#5534FE" transform="translate(114,111)"/>
<path d="M0 0 C2.88373626 0.42722019 4.09672548 1.08145304 6.375 3 C9.33460826 5.25493962 11.34210562 5.65973076 15 6 C15 9.37187352 14.48480165 11.44236941 12.2578125 14.00390625 C10.83170296 15.38038927 9.39403634 16.74499474 7.9453125 18.09765625 C5.80559413 20.19011176 4.33770691 22.32458618 3 25 C1.1875 24.8125 1.1875 24.8125 -1 24 C-2.04644066 22.36209288 -3.0398183 20.68991979 -4 19 C-4.86625 18.154375 -5.7325 17.30875 -6.625 16.4375 C-8.88661207 14.11637182 -9.6512354 13.13888138 -10 10 C-6.25 7 -6.25 7 -4 7 C-3.71125 6.401875 -3.4225 5.80375 -3.125 5.1875 C-2 3 -2 3 0 0 Z " fill="#6556FA" transform="translate(114,58)"/>
<path d="M0 0 C0 3.96 0 7.92 0 12 C0.99902344 11.98839844 1.99804688 11.97679688 3.02734375 11.96484375 C4.31769531 11.95582031 5.60804688 11.94679688 6.9375 11.9375 C8.22527344 11.92589844 9.51304687 11.91429688 10.83984375 11.90234375 C14 12 14 12 15 13 C15.09851171 14.83115883 15.12972629 16.66619933 15.125 18.5 C15.12886719 20.00046875 15.12886719 20.00046875 15.1328125 21.53125 C15 24 15 24 14 25 C9.71 25 5.42 25 1 25 C1 34.24 1 43.48 1 53 C5.29 53 9.58 53 14 53 C14.495 55.97 14.495 55.97 15 59 C14.34 58.34 13.68 57.68 13 57 C13 56.01 13 55.02 13 54 C12.31292969 54.08378906 11.62585938 54.16757813 10.91796875 54.25390625 C9.56638672 54.40666016 9.56638672 54.40666016 8.1875 54.5625 C6.84751953 54.71912109 6.84751953 54.71912109 5.48046875 54.87890625 C3 55 3 55 0 54 C-2.33067603 50.69038193 -2.23265227 47.66114093 -2.1953125 43.703125 C-2.18886719 42.49785156 -2.18242187 41.29257813 -2.17578125 40.05078125 C-2.15902344 38.79652344 -2.14226562 37.54226562 -2.125 36.25 C-2.11597656 34.98027344 -2.10695313 33.71054688 -2.09765625 32.40234375 C-2.07409087 29.26814871 -2.03822013 26.13405059 -2 23 C2.95 23 7.9 23 13 23 C13 19.7 13 16.4 13 13 C12.00097656 13.01160156 11.00195312 13.02320312 9.97265625 13.03515625 C8.68230469 13.04417969 7.39195312 13.05320312 6.0625 13.0625 C4.77472656 13.07410156 3.48695313 13.08570312 2.16015625 13.09765625 C-1 13 -1 13 -2 12 C-2.14257189 8.66381769 -2.04228157 5.34024394 -2 2 C-5.63 2.33 -9.26 2.66 -13 3 C-13.144375 4.464375 -13.28875 5.92875 -13.4375 7.4375 C-13.875 11.875 -13.875 11.875 -15 13 C-16.99958364 13.04080783 -19.00045254 13.04254356 -21 13 C-21 16.3 -21 19.6 -21 23 C-18.36 23 -15.72 23 -13 23 C-13 33.56 -13 44.12 -13 55 C-15.39112209 51.41331687 -15.23381027 49.83603431 -15.1953125 45.58203125 C-15.18564453 43.70161133 -15.18564453 43.70161133 -15.17578125 41.78320312 C-15.15902344 40.47287109 -15.14226562 39.16253906 -15.125 37.8125 C-15.11496639 36.47722013 -15.1058412 35.14193311 -15.09765625 33.80664062 C-15.07405292 30.53757985 -15.04112594 27.26887972 -15 24 C-17.31 24 -19.62 24 -22 24 C-22 20.04 -22 16.08 -22 12 C-20.02 12 -18.04 12 -16 12 C-16.02320313 11.37351562 -16.04640625 10.74703125 -16.0703125 10.1015625 C-16.09738281 8.87566406 -16.09738281 8.87566406 -16.125 7.625 C-16.14820313 6.81289062 -16.17140625 6.00078125 -16.1953125 5.1640625 C-16 3 -16 3 -14 1 C-12.01171875 0.5859375 -12.01171875 0.5859375 -9.6875 0.375 C-8.54861328 0.26285156 -8.54861328 0.26285156 -7.38671875 0.1484375 C-4.92873121 -0.00443243 -2.46273668 0 0 0 Z " fill="#ACA1FD" transform="translate(327,64)"/>
<path d="M0 0 C1.875 0.9375 1.875 0.9375 2.75 2.9375 C3.306875 3.9275 3.306875 3.9275 3.875 4.9375 C6.72578091 5.70466851 6.72578091 5.70466851 9.875 5.9375 C14.63175676 6.69425676 14.63175676 6.69425676 16.875 8.9375 C17.43498192 12.65106429 17.40275569 16.22122032 16.875 19.9375 C14.1410766 23.41703888 12.39107598 23.83597686 8.0625 24.6875 C7.010625 24.77 5.95875 24.8525 4.875 24.9375 C4.648125 25.741875 4.42125 26.54625 4.1875 27.375 C2.875 29.9375 2.875 29.9375 0.57421875 30.8984375 C-2.125 30.9375 -2.125 30.9375 -4.40625 28.91796875 C-5.1384375 27.99628906 -5.870625 27.07460937 -6.625 26.125 C-9.57316574 22.44498326 -11.56389044 20.32671119 -16.125 18.9375 C-16.51641851 15.51258802 -16.25857065 14.14739673 -14.375 11.1875 C-12.125 8.9375 -12.125 8.9375 -10 8.4375 C-9.38125 8.2725 -8.7625 8.1075 -8.125 7.9375 C-7.42841637 6.28311387 -6.76403117 4.61495682 -6.125 2.9375 C-4.01285678 0.82535678 -3.01811063 -0.08876796 0 0 Z M-2.125 3.9375 C-5.17576843 6.97405958 -5.17576843 6.97405958 -6.125 10.9375 C-6.929375 11.185 -7.73375 11.4325 -8.5625 11.6875 C-11.19940234 12.68107583 -11.19940234 12.68107583 -12.1875 14.75 C-12.09112094 18.12326724 -10.3969906 19.5426991 -8.125 21.9375 C-7.073125 22.7109375 -7.073125 22.7109375 -6 23.5 C-3.89388609 25.11468733 -3.12906019 26.51102121 -2.125 28.9375 C-1.135 28.9375 -0.145 28.9375 0.875 28.9375 C2.35889983 27.40961183 2.35889983 27.40961183 3.6875 25.375 C6.16890366 21.86123291 8.81788086 18.70040534 11.7734375 15.578125 C13.24662279 13.71337427 13.24662279 13.71337427 12.875 9.9375 C11.6375 9.69 10.4 9.4425 9.125 9.1875 C5.29620727 8.25562452 3.53036529 6.88790587 0.875 3.9375 C-0.115 3.9375 -1.105 3.9375 -2.125 3.9375 Z " fill="#C3BEFF" transform="translate(116.125,54.0625)"/>
<path d="M0 0 C1.79244141 0.01740234 1.79244141 0.01740234 3.62109375 0.03515625 C5.41740234 0.04869141 5.41740234 0.04869141 7.25 0.0625 C8.17683594 0.07410156 9.10367187 0.08570313 10.05859375 0.09765625 C10.0817184 9.72878337 10.09950946 19.35990099 10.11040592 28.99104977 C10.11563449 33.46271174 10.12273164 37.93435478 10.1340332 42.40600586 C10.14486304 46.71777598 10.15087079 51.02952784 10.15347099 55.3413105 C10.15532507 56.99001923 10.15894535 58.63872691 10.16432381 60.2874279 C10.17153553 62.58869497 10.17258464 64.88988565 10.17211914 67.19116211 C10.17433975 68.50354355 10.17656036 69.81592499 10.17884827 71.16807556 C10.05859375 74.09765625 10.05859375 74.09765625 9.05859375 75.09765625 C7.06059803 75.19639441 5.05902217 75.22737424 3.05859375 75.22265625 C1.96546875 75.22523438 0.87234375 75.2278125 -0.25390625 75.23046875 C-2.94140625 75.09765625 -2.94140625 75.09765625 -3.94140625 74.09765625 C-3.98204457 72.4314851 -3.98412725 70.7637753 -3.94140625 69.09765625 C-5.59140625 70.08765625 -7.24140625 71.07765625 -8.94140625 72.09765625 C-8.28140625 70.44765625 -7.62140625 68.79765625 -6.94140625 67.09765625 C-5.29140625 67.09765625 -3.64140625 67.09765625 -1.94140625 67.09765625 C-1.94140625 69.40765625 -1.94140625 71.71765625 -1.94140625 74.09765625 C1.35859375 74.09765625 4.65859375 74.09765625 8.05859375 74.09765625 C8.05859375 50.00765625 8.05859375 25.91765625 8.05859375 1.09765625 C4.75859375 1.09765625 1.45859375 1.09765625 -1.94140625 1.09765625 C-1.94140625 10.00765625 -1.94140625 18.91765625 -1.94140625 28.09765625 C-3.59140625 28.09765625 -5.24140625 28.09765625 -6.94140625 28.09765625 C-5.95140625 27.76765625 -4.96140625 27.43765625 -3.94140625 27.09765625 C-3.94664307 26.31527588 -3.95187988 25.53289551 -3.95727539 24.72680664 C-3.97797731 21.20459792 -3.99104463 17.68240195 -4.00390625 14.16015625 C-4.01228516 12.92845703 -4.02066406 11.69675781 -4.02929688 10.42773438 C-4.03251953 9.25791016 -4.03574219 8.08808594 -4.0390625 6.8828125 C-4.04429932 5.7987915 -4.04953613 4.71477051 -4.05493164 3.59790039 C-3.89032257 -0.02739318 -3.67639188 0.12205816 0 0 Z " fill="#8F7FFE" transform="translate(256.94140625,53.90234375)"/>
<path d="M0 0 C0.56221257 11.88975473 0.56221257 11.88975473 -3 16 C-5.32595946 17.16297973 -6.78723231 17.16600691 -9.375 17.1875 C-10.53128906 17.20876953 -10.53128906 17.20876953 -11.7109375 17.23046875 C-14.21834888 16.97801607 -15.83261902 16.25193467 -18 15 C-18.3652968 7.69406393 -18.3652968 7.69406393 -16.75 4.625 C-13.60002219 1.7000206 -10.60904231 0.75733827 -6.375 0.375 C-5.59898437 0.30023438 -4.82296875 0.22546875 -4.0234375 0.1484375 C-2 0 -2 0 0 0 Z " fill="#FAFAFE" transform="translate(441,103)"/>
<path d="M0 0 C2.1875 1.125 2.1875 1.125 4.1875 3.125 C4.45741906 5.81339385 4.27487357 8.41641936 4.1875 11.125 C2.5375 11.455 0.8875 11.785 -0.8125 12.125 C-0.8125 12.785 -0.8125 13.445 -0.8125 14.125 C-8.58658638 14.57350498 -8.58658638 14.57350498 -12.375 13.1875 C-14.42622237 10.24444182 -14.3691746 7.74935096 -14.19140625 4.22265625 C-13.8125 2.125 -13.8125 2.125 -12.25 0.0625 C-8.00568468 -1.56992897 -4.30275649 -1.33863535 0 0 Z " fill="#6149FE" transform="translate(293.8125,54.875)"/>
<path d="M0 0 C0 0.66 0 1.32 0 2 C-0.66 2 -1.32 2 -2 2 C-2 2.99 -2 3.98 -2 5 C-2.639375 5.103125 -3.27875 5.20625 -3.9375 5.3125 C-4.618125 5.539375 -5.29875 5.76625 -6 6 C-6.33 6.99 -6.66 7.98 -7 9 C-8.84765625 10.82421875 -8.84765625 10.82421875 -11.0625 12.6875 C-11.79597656 13.31011719 -12.52945313 13.93273437 -13.28515625 14.57421875 C-13.85105469 15.04472656 -14.41695313 15.51523438 -15 16 C-13.10899495 20.18313239 -10.34187164 23.43712913 -7.4609375 26.9765625 C-6 29 -6 29 -6 31 C-2.60645694 29.57113976 -0.80257939 27.84682543 1.5 25 C3.80257939 22.15317457 5.60645694 20.42886024 9 19 C9 17.68 9 16.36 9 15 C8.0409375 14.8453125 8.0409375 14.8453125 7.0625 14.6875 C6.381875 14.460625 5.70125 14.23375 5 14 C4.67 13.01 4.34 12.02 4 11 C6.64 11.33 9.28 11.66 12 12 C12.25 17.625 12.25 17.625 10 21 C8.33720673 22.0064275 6.67016516 23.00585407 5 24 C2.31979608 26.38240349 1.14462392 27.56612823 0 31 C-0.66 31 -1.32 31 -2 31 C-2 31.66 -2 32.32 -2 33 C-3.98 33 -5.96 33 -8 33 C-8.86625 31.39125 -8.86625 31.39125 -9.75 29.75 C-12.35918947 25.20229301 -15.10797116 22.09658379 -20 20 C-20.25 17.6875 -20.25 17.6875 -20 15 C-18.1875 13.1875 -18.1875 13.1875 -16 12 C-15.01 12 -14.02 12 -13 12 C-13.33 11.01 -13.66 10.02 -14 9 C-15.65 8.67 -17.3 8.34 -19 8 C-18.67 7.34 -18.34 6.68 -18 6 C-15.66989091 5.32215008 -13.33640176 4.65583207 -11 4 C-10.34 3.34 -9.68 2.68 -9 2 C-5.62485432 0.40124678 -3.83441243 0 0 0 Z " fill="#B5ADFE" transform="translate(120,106)"/>
<path d="M0 0 C1.2065625 0.0309375 1.2065625 0.0309375 2.4375 0.0625 C1.880625 0.248125 1.32375 0.43375 0.75 0.625 C-3.67436669 3.375282 -6.49021243 8.35275552 -8.5625 13.0625 C-9.2225 13.0625 -9.8825 13.0625 -10.5625 13.0625 C-10.60375 13.619375 -10.645 14.17625 -10.6875 14.75 C-11.7391948 17.52947912 -13.21787477 19.29647776 -15.53125 21.15625 C-19.67021533 23.0028653 -24.23340836 21.84050401 -28.5625 21.0625 C-28.2325 23.3725 -27.9025 25.6825 -27.5625 28.0625 C-29.5425 29.0525 -29.5425 29.0525 -31.5625 30.0625 C-31.5625 31.7125 -31.5625 33.3625 -31.5625 35.0625 C-30.840625 35.31 -30.11875 35.5575 -29.375 35.8125 C-26.29355265 37.18203215 -24.1564755 38.92247022 -21.5625 41.0625 C-20.716875 41.536875 -19.87125 42.01125 -19 42.5 C-16.17830881 44.30877641 -14.52690122 46.37054277 -12.5625 49.0625 C-16.69454236 49.0625 -18.19443594 47.31960688 -21.4375 44.8125 C-22.46617188 44.02359375 -23.49484375 43.2346875 -24.5546875 42.421875 C-25.54726563 41.64328125 -26.53984375 40.8646875 -27.5625 40.0625 C-28.49707031 39.381875 -29.43164062 38.70125 -30.39453125 38 C-33.40728734 35.30751888 -33.33629246 32.98343063 -33.5625 29.0625 C-35.2125 29.3925 -36.8625 29.7225 -38.5625 30.0625 C-38.5625 28.4125 -38.5625 26.7625 -38.5625 25.0625 C-37.2425 25.0625 -35.9225 25.0625 -34.5625 25.0625 C-34.5625 25.7225 -34.5625 26.3825 -34.5625 27.0625 C-33.9025 27.0625 -33.2425 27.0625 -32.5625 27.0625 C-32.44132812 26.49660156 -32.32015625 25.93070313 -32.1953125 25.34765625 C-32.02773438 24.61417969 -31.86015625 23.88070312 -31.6875 23.125 C-31.52507813 22.39410156 -31.36265625 21.66320312 -31.1953125 20.91015625 C-30.5625 19.0625 -30.5625 19.0625 -28.5625 18.0625 C-26.22956666 18.01929753 -23.8954866 18.02227609 -21.5625 18.0625 C-20.2425 18.0625 -18.9225 18.0625 -17.5625 18.0625 C-16.9025 17.4025 -16.2425 16.7425 -15.5625 16.0625 C-14.5725 16.0625 -13.5825 16.0625 -12.5625 16.0625 C-12.2325 14.4125 -11.9025 12.7625 -11.5625 11.0625 C-10.5725 10.7325 -9.5825 10.4025 -8.5625 10.0625 C-7.49533296 8.26317421 -7.49533296 8.26317421 -6.5625 6.0625 C-3.08148734 0.07515823 -3.08148734 0.07515823 0 0 Z " fill="#E3E5FA" transform="translate(79.5625,62.9375)"/>
<path d="M0 0 C2.1875 1.6875 2.1875 1.6875 4.1875 4.6875 C4.1875 6.0075 4.1875 7.3275 4.1875 8.6875 C-3.0725 8.6875 -10.3325 8.6875 -17.8125 8.6875 C-16.80881506 3.66907528 -16.51808528 2.73915846 -12.8125 -0.3125 C-8.24651671 -1.83449443 -4.41357286 -2.05966734 0 0 Z " fill="#EFEDFF" transform="translate(548.8125,88.3125)"/>
<path d="M0 0 C0.66 0.33 1.32 0.66 2 1 C0.29379033 2.88581069 -1.23069459 4.13605066 -3.4375 5.4375 C-7.23114402 7.75069757 -9.58220244 9.74660733 -11 14 C-8.03 14 -5.06 14 -2 14 C-2.33 15.32 -2.66 16.64 -3 18 C-4.98 18 -6.96 18 -9 18 C-9.33 18.99 -9.66 19.98 -10 21 C-12.31104818 22.05047644 -14.64583651 23.05007438 -17 24 C-17.66 24.66 -18.32 25.32 -19 26 C-22.25 25.6875 -22.25 25.6875 -26 25 C-27.134375 24.814375 -28.26875 24.62875 -29.4375 24.4375 C-30.283125 24.293125 -31.12875 24.14875 -32 24 C-31.34 22.68 -30.68 21.36 -30 20 C-28.68 20 -27.36 20 -26 20 C-25.67 20.66 -25.34 21.32 -25 22 C-23.35 22 -21.7 22 -20 22 C-19.76925781 21.48050781 -19.53851563 20.96101563 -19.30078125 20.42578125 C-17.10754416 15.73589483 -14.88130768 12.5202558 -11 9 C-9.24371185 7.1883334 -7.49359288 5.37092468 -5.74609375 3.55078125 C-3.90414648 1.91486835 -2.30012839 0.8795992 0 0 Z " fill="#97BDFC" transform="translate(101,101)"/>
<path d="M0 0 C1.32 0.33 2.64 0.66 4 1 C4.32899743 4.61897173 4.44576634 6.39503139 2.25 9.375 C0 11 0 11 -4 11 C-4.33 11.99 -4.66 12.98 -5 14 C-9.33333333 17 -9.33333333 17 -12 17 C-11.67 17.763125 -11.34 18.52625 -11 19.3125 C-10 22 -10 22 -10 25 C-12.5 22.75 -12.5 22.75 -15 20 C-15 18.68 -15 17.36 -15 16 C-14.34 16 -13.68 16 -13 16 C-13 15.34 -13 14.68 -13 14 C-15.31 14.66 -17.62 15.32 -20 16 C-17.6157904 12.42368559 -15.82059847 11.87425586 -12 10 C-10.19938614 8.70495807 -8.44637219 7.36929618 -6.7109375 5.98828125 C-5 5 -5 5 -1 5 C-0.67 3.35 -0.34 1.7 0 0 Z " fill="#BBD8FF" transform="translate(133,92)"/>
<path d="M0 0 C1.2065625 0.0309375 1.2065625 0.0309375 2.4375 0.0625 C2.75203125 0.66578125 3.0665625 1.2690625 3.390625 1.890625 C5.70509023 6.2128191 7.80768242 9.70155779 11.4375 13.0625 C11.4375 13.7225 11.4375 14.3825 11.4375 15.0625 C12.14519531 15.29066406 12.85289063 15.51882812 13.58203125 15.75390625 C17.04963396 17.3430265 19.33400469 19.40700163 22.125 22 C23.07761719 22.87527344 24.03023437 23.75054687 25.01171875 24.65234375 C27.4375 27.0625 27.4375 27.0625 29.4375 30.0625 C29.3125 32.625 29.3125 32.625 28.4375 35.0625 C26.375 36.375 26.375 36.375 24.4375 37.0625 C25.0975 36.0725 25.7575 35.0825 26.4375 34.0625 C26.51774658 31.46360217 26.51774658 31.46360217 25.4375 29.0625 C24.695 28.76859375 23.9525 28.4746875 23.1875 28.171875 C13.30917958 24.18687074 5.31064276 13.24649982 0.4375 4.0625 C-1.5425 4.3925 -3.5225 4.7225 -5.5625 5.0625 C-3.15007962 0.07683121 -3.15007962 0.07683121 0 0 Z " fill="#BCB9FF" transform="translate(80.5625,63.9375)"/>
<path d="M0 0 C0.66 0 1.32 0 2 0 C1.8125 1.875 1.8125 1.875 1 4 C-0.66666667 4.66666667 -2.33333333 5.33333333 -4 6 C-5.06754834 7.93400917 -5.06754834 7.93400917 -5 10 C-2.8614515 12.1385485 -1.86724686 12.42655063 1 13 C1 12.34 1 11.68 1 11 C2.9375 11.375 2.9375 11.375 5 12 C6.59262061 15.18524122 6.40324768 17.48074749 6 21 C4.07480934 23.30787382 2.37298995 25.07609098 0.125 27 C-4.56984628 31.07395014 -6.77813291 33.81333118 -8 40 C-8.99 40 -9.98 40 -11 40 C-11 39.01 -11 38.02 -11 37 C-12.32 36.67 -13.64 36.34 -15 36 C-13.68 36 -12.36 36 -11 36 C-11 35.34 -11 34.68 -11 34 C-10.34 34 -9.68 34 -9 34 C-8.89429687 33.40574219 -8.78859375 32.81148437 -8.6796875 32.19921875 C-7.90574878 29.69503773 -6.99395711 28.6210182 -5.125 26.8125 C-4.61195312 26.30332031 -4.09890625 25.79414063 -3.5703125 25.26953125 C-2 24 -2 24 1 23 C1.80212628 21.12612784 1.80212628 21.12612784 2.1875 18.9375 C2.34605469 18.20402344 2.50460938 17.47054687 2.66796875 16.71484375 C2.83232422 15.86599609 2.83232422 15.86599609 3 15 C2.113125 15.103125 1.22625 15.20625 0.3125 15.3125 C-3 15 -3 15 -5.875 12.75 C-8 10 -8 10 -8 6 C-6.20963542 5.0234375 -4.41927083 4.046875 -2.62890625 3.0703125 C-0.83381685 2.08589976 -0.83381685 2.08589976 0 0 Z " fill="#E6E7FC" transform="translate(129,103)"/>
<path d="M0 0 C0 0.66 0 1.32 0 2 C-2.91824244 3.66674321 -4.97594379 4.2432008 -8.328125 4.1953125 C-9.52695312 4.18564453 -9.52695312 4.18564453 -10.75 4.17578125 C-11.575 4.15902344 -12.4 4.14226562 -13.25 4.125 C-14.09046875 4.11597656 -14.9309375 4.10695313 -15.796875 4.09765625 C-17.86470604 4.07415817 -19.93238995 4.03828908 -22 4 C-21.67 5.32 -21.34 6.64 -21 8 C-18.22890693 8.05392397 -15.45886182 8.09363455 -12.6875 8.125 C-11.90181641 8.14175781 -11.11613281 8.15851563 -10.30664062 8.17578125 C-9.54931641 8.18222656 -8.79199219 8.18867188 -8.01171875 8.1953125 C-6.96697388 8.21102295 -6.96697388 8.21102295 -5.90112305 8.22705078 C-3.668827 8.10574595 -3.668827 8.10574595 -1 6 C2.59971059 5.90048877 6.15283803 6.06902746 9.75 6.22265625 C12.97893035 6.3049716 12.97893035 6.3049716 14.9375 4.49609375 C15.4634375 3.75552734 15.4634375 3.75552734 16 3 C16.66 3.33 17.32 3.66 18 4 C16.34388664 6.28429428 15.37566381 7.56954711 13 9 C10.08089438 9.28181567 7.34908439 9.19012378 4.42578125 8.98046875 C1.81450109 8.71790508 1.81450109 8.71790508 0 11 C-2.21484375 11.24291992 -2.21484375 11.24291992 -4.9375 11.23046875 C-6.40316406 11.22756836 -6.40316406 11.22756836 -7.8984375 11.22460938 C-8.92195313 11.21236328 -9.94546875 11.20011719 -11 11.1875 C-12.02351563 11.18685547 -13.04703125 11.18621094 -14.1015625 11.18554688 C-21.71935497 11.14032251 -21.71935497 11.14032251 -24 10 C-24 7.36 -24 4.72 -24 2 C-23.01 1.67 -22.02 1.34 -21 1 C-20.34 1.33 -19.68 1.66 -19 2 C-17.19051505 2.12176503 -15.37603729 2.17545792 -13.5625 2.1875 C-12.59441406 2.20167969 -11.62632813 2.21585937 -10.62890625 2.23046875 C-6.52107966 1.87034725 -4.40416698 -0.23806308 0 0 Z " fill="#DDE8FF" transform="translate(69,120)"/>
<path d="M0 0 C2.98178775 2.34209626 3.92828095 3.47884158 4.45410156 7.29980469 C4.4331543 8.57758789 4.41220703 9.85537109 4.390625 11.171875 C4.38496521 11.8542926 4.37930542 12.53671021 4.37347412 13.23980713 C4.35115636 15.41059762 4.30097508 17.57971206 4.25 19.75 C4.22992876 21.2252365 4.21167907 22.70049899 4.1953125 24.17578125 C4.1513088 27.78439501 4.08231583 31.39203381 4 35 C6.31 35 8.62 35 11 35 C11.08121924 36.60332791 11.13929134 38.20784026 11.1875 39.8125 C11.23970703 41.15248047 11.23970703 41.15248047 11.29296875 42.51953125 C11 45 11 45 9.875 46.8125 C7.15281483 48.53655061 4.99947795 48.29030574 1.8125 48.1875 C0.72582031 48.16042969 -0.36085938 48.13335937 -1.48046875 48.10546875 C-2.72763672 48.05326172 -2.72763672 48.05326172 -4 48 C-4 47.34 -4 46.68 -4 46 C-5.175625 45.566875 -5.175625 45.566875 -6.375 45.125 C-9 44 -9 44 -11 42 C-7 42 -7 42 -4.9375 43.4375 C-0.51046215 45.79230737 4.05320216 45.74876158 9 46 C9 42.7 9 39.4 9 36 C7.02 36 5.04 36 3 36 C1.65952132 33.31904265 1.80316284 31.14320771 1.71875 28.14453125 C1.68136719 26.96439453 1.64398438 25.78425781 1.60546875 24.56835938 C1.57066406 23.32892578 1.53585937 22.08949219 1.5 20.8125 C1.26357696 10.3598159 1.26357696 10.3598159 0 0 Z " fill="#B7ACFF" transform="translate(451,82)"/>
<path d="M0 0 C0.33 0.66 0.66 1.32 1 2 C3.01669827 3.13350534 3.01669827 3.13350534 5 4 C4.45276317 7.37462715 3.9451 9.08235 2 12 C3.98 12 5.96 12 8 12 C8 12.33 8 12.66 8 13 C6.3603125 13.185625 6.3603125 13.185625 4.6875 13.375 C0.92618198 13.75464801 0.92618198 13.75464801 -2 16 C-3.90112305 16.22705078 -3.90112305 16.22705078 -6.01171875 16.1953125 C-6.76904297 16.18886719 -7.52636719 16.18242187 -8.30664062 16.17578125 C-9.09232422 16.15902344 -9.87800781 16.14226562 -10.6875 16.125 C-11.48478516 16.11597656 -12.28207031 16.10695312 -13.10351562 16.09765625 C-15.069139 16.07411585 -17.03460775 16.03824547 -19 16 C-19.33 14.35 -19.66 12.7 -20 11 C-18.74703125 10.93941406 -17.4940625 10.87882812 -16.203125 10.81640625 C-14.55207276 10.73197744 -12.90103165 10.64733061 -11.25 10.5625 C-10.425 10.52318359 -9.6 10.48386719 -8.75 10.44335938 C-7.95078125 10.40146484 -7.1515625 10.35957031 -6.328125 10.31640625 C-5.5949707 10.27974854 -4.86181641 10.24309082 -4.10644531 10.20532227 C-1.98822395 9.99885215 -0.0480544 9.56867914 2 9 C2.33 7.35 2.66 5.7 3 4 C2.01 4 1.02 4 0 4 C0 2.68 0 1.36 0 0 Z " fill="#9DC9FF" transform="translate(67,113)"/>
<path d="M0 0 C2.96005006 0.23699747 4.5044047 0.42745701 6.484375 2.71484375 C6.90203125 3.44832031 7.3196875 4.18179688 7.75 4.9375 C10.72497071 9.78444967 14.26949824 13.78594535 18.14453125 17.93359375 C20 20 20 20 21 22 C13.08661647 18.65203005 8.29877847 12.18582791 4 5 C4 4.34 4 3.68 4 3 C0.85686007 5.9526466 -1.82569672 9.00152769 -4.4375 12.4375 C-9.38397105 18.86898072 -13.84776687 23.15898591 -21 27 C-22.35387289 27.97201131 -23.69855198 28.95884159 -25 30 C-24.63243647 27.54094824 -24.42294854 26.33435084 -22.43359375 24.76171875 C-21.77488281 24.40722656 -21.11617187 24.05273438 -20.4375 23.6875 C-11.23815703 18.29648719 -3.97950937 11.4282828 -1 1 C-0.67 0.67 -0.34 0.34 0 0 Z " fill="#847DFE" transform="translate(77,67)"/>
<path d="M0 0 C0.77150391 -0.01611328 1.54300781 -0.03222656 2.33789062 -0.04882812 C4.57421875 -0.05078125 4.57421875 -0.05078125 8.3125 0.3125 C8.9725 1.3025 9.6325 2.2925 10.3125 3.3125 C9.11753906 3.25449219 7.92257813 3.19648437 6.69140625 3.13671875 C-4.79833384 2.52682485 -4.79833384 2.52682485 -15.1875 6.8203125 C-17.4880042 9.10883491 -18.15980475 11.14632852 -18.6875 14.3125 C-18.85628662 15.09906982 -19.02507324 15.88563965 -19.19897461 16.69604492 C-19.67029736 19.22036573 -19.88815781 21.61278013 -20.00390625 24.17578125 C-20.04580078 25.06201172 -20.08769531 25.94824219 -20.13085938 26.86132812 C-20.18983398 28.2293457 -20.18983398 28.2293457 -20.25 29.625 C-20.29318359 30.55634766 -20.33636719 31.48769531 -20.38085938 32.44726562 C-20.48647225 34.73554454 -20.58857752 37.02392372 -20.6875 39.3125 C-23.28898923 36.71101077 -22.97210054 34.84276251 -23.01708984 31.29394531 C-23.0114502 30.49569336 -23.00581055 29.69744141 -23 28.875 C-22.99436035 28.06256836 -22.9887207 27.25013672 -22.98291016 26.41308594 C-22.825037 18.55069023 -22.39545032 10.77901078 -16.8125 4.75 C-11.27428462 0.430192 -6.80080379 -0.02884141 0 0 Z " fill="#9282FE" transform="translate(237.6875,75.6875)"/>
<path d="M0 0 C0.66 0.33 1.32 0.66 2 1 C-0.31 3.31 -2.62 5.62 -5 8 C-1.58343976 8.16677282 -1.58343976 8.16677282 2 8 C2.66 7.34 3.32 6.68 4 6 C7.45778772 4.86836038 10.35258558 4 14 4 C12.02579865 6.52259061 11.03254358 6.9929808 7.8125 7.6875 C6.4203125 7.8421875 6.4203125 7.8421875 5 8 C7.475 8.99 7.475 8.99 10 10 C10 10.99 10 11.98 10 13 C5.77777778 16 5.77777778 16 3 16 C3.33 17.98 3.66 19.96 4 22 C3.01 21.67 2.02 21.34 1 21 C1 19.02 1 17.04 1 15 C-0.65 15 -2.3 15 -4 15 C-4.33 15.99 -4.66 16.98 -5 18 C-6.32 17.67 -7.64 17.34 -9 17 C-8.01 16.67 -7.02 16.34 -6 16 C-5.67 15.34 -5.34 14.68 -5 14 C-1.9375 13.375 -1.9375 13.375 1 13 C1.33 12.01 1.66 11.02 2 10 C-0.97 10 -3.94 10 -7 10 C-6.01641451 6.06565804 -5.691807 5.32850017 -2.9375 2.75 C-2.38964844 2.22921875 -1.84179688 1.7084375 -1.27734375 1.171875 C-0.85582031 0.78515625 -0.43429688 0.3984375 0 0 Z " fill="#AAC2FD" transform="translate(97,105)"/>
<path d="M0 0 C0.33 0.66 0.66 1.32 1 2 C-1.475 3.485 -1.475 3.485 -4 5 C-3.52460544 9.278551 -0.97434671 11.09647107 2 14 C2.53625 14.9075 3.0725 15.815 3.625 16.75 C4.85790128 19.31074335 4.85790128 19.31074335 8 20 C8.37125 18.88431641 8.37125 18.88431641 8.75 17.74609375 C10.12051798 14.73523707 11.55634939 13.25909034 14 11.0625 C17.28542781 7.92586874 19.08516203 5.57418987 20 1 C18.02 1 16.04 1 14 1 C14 0.67 14 0.34 14 0 C16.31 0 18.62 0 21 0 C21.8637257 3.37638228 22.26339539 5.34925845 20.9375 8.625 C19 11 19 11 16 12.9375 C12.7795321 14.79035667 12.7795321 14.79035667 11.4375 18.1875 C10 21 10 21 7.69921875 21.96875 C5 22 5 22 2.6484375 20.05078125 C1.89820312 19.14714844 1.14796875 18.24351563 0.375 17.3125 C-0.38039063 16.42175781 -1.13578125 15.53101562 -1.9140625 14.61328125 C-2.60242188 13.75089844 -3.29078125 12.88851562 -4 12 C-4.58394531 11.27167969 -5.16789062 10.54335937 -5.76953125 9.79296875 C-7 8 -7 8 -7.0625 6 C-5.44650257 2.95812248 -2.90208637 1.72890252 0 0 Z " fill="#A79DFE" transform="translate(109,63)"/>
<path d="M0 0 C0.80206716 2.78547355 1.06331273 5.1117773 0.9375 8 C0.85738447 14.9013808 1.31870484 22.99438345 5 29 C8.43624858 31.48173509 11.9602122 32.7786688 16 34 C16 34.66 16 35.32 16 36 C23.26 35.67 30.52 35.34 38 35 C37.505 35.99 37.505 35.99 37 37 C29.64129011 38.9365026 20.36093169 38.76662361 13 37 C10.375 35.125 10.375 35.125 8 33 C7.13375 32.505 6.2675 32.01 5.375 31.5 C2.72546687 29.82661065 1.49076834 28.75792143 0 26 C-1.61043021 18.24065442 -2.51313089 7.53939267 0 0 Z " fill="#9787FE" transform="translate(518,92)"/>
<path d="M0 0 C0.99 0.99 1.98 1.98 3 3 C2.6875 5 2.6875 5 2 7 C2 7.99 2 8.98 2 10 C0.72239767 13.24314437 0.03061766 13.97958823 -3 16 C-4.155 16.268125 -5.31 16.53625 -6.5 16.8125 C-10.68791062 18.23339825 -10.88739811 19.32590976 -13 23 C-16.1875 24.3125 -16.1875 24.3125 -19 25 C-21.27505004 22.83328568 -23.23575092 20.60436769 -25 18 C-25 17.34 -25 16.68 -25 16 C-25.598125 15.731875 -26.19625 15.46375 -26.8125 15.1875 C-28.97224808 14.01506533 -30.35790256 12.80630718 -32 11 C-28.71734835 11.31344764 -27.30408695 11.69533712 -24.9375 14.06640625 C-23.64457157 15.73209429 -22.35290663 17.39876381 -21.0625 19.06640625 C-19.13274359 21.26778253 -19.13274359 21.26778253 -16.25 21.27734375 C-15.5075 21.18582031 -14.765 21.09429687 -14 21 C-13.835 20.236875 -13.67 19.47375 -13.5 18.6875 C-11.55204631 15.1974163 -9.76508665 14.82073978 -6.0703125 13.67578125 C-3.61608573 12.93103882 -3.61608573 12.93103882 0 11 C0 7.37 0 3.74 0 0 Z " fill="#E3E0FE" transform="translate(133,63)"/>
<path d="M0 0 C0 0.66 0 1.32 0 2 C-0.66 2 -1.32 2 -2 2 C-2 2.99 -2 3.98 -2 5 C-2.639375 5.103125 -3.27875 5.20625 -3.9375 5.3125 C-4.618125 5.539375 -5.29875 5.76625 -6 6 C-6.33 6.99 -6.66 7.98 -7 9 C-8.84765625 10.82421875 -8.84765625 10.82421875 -11.0625 12.6875 C-11.79597656 13.31011719 -12.52945313 13.93273437 -13.28515625 14.57421875 C-13.85105469 15.04472656 -14.41695313 15.51523438 -15 16 C-13.64062915 18.8605891 -12.35479531 20.85927699 -10 23 C-10.33 23.66 -10.66 24.32 -11 25 C-13.31 23.02 -15.62 21.04 -18 19 C-16.98780936 14.95123744 -16.65969301 14.65969301 -14 12 C-14 11.01 -14 10.02 -14 9 C-15.65 8.67 -17.3 8.34 -19 8 C-18.67 7.34 -18.34 6.68 -18 6 C-15.66989091 5.32215008 -13.33640176 4.65583207 -11 4 C-10.34 3.34 -9.68 2.68 -9 2 C-5.62485432 0.40124678 -3.83441243 0 0 0 Z " fill="#8D81FF" transform="translate(120,106)"/>
<path d="M0 0 C3.41057594 1.4616754 5.69150895 3.07591134 8 6 C10.812783 13.59451411 10 19.36361608 10 28 C-1.55 28 -13.1 28 -25 28 C-25 29.65 -25 31.3 -25 33 C-25.66 32.34 -26.32 31.68 -27 31 C-26.67 29.68 -26.34 28.36 -26 27 C-14.78 27 -3.56 27 8 27 C7.7525 24.15375 7.505 21.3075 7.25 18.375 C7.18200195 17.48989746 7.11400391 16.60479492 7.04394531 15.69287109 C6.52222505 10.44852015 5.3367205 7.24094629 2 3 C1.34 2.01 0.68 1.02 0 0 Z " fill="#B1A6FF" transform="translate(557,79)"/>
<path d="M0 0 C0.56221257 11.88975473 0.56221257 11.88975473 -3 16 C-5.32595946 17.16297973 -6.78723231 17.16600691 -9.375 17.1875 C-10.53128906 17.20876953 -10.53128906 17.20876953 -11.7109375 17.23046875 C-14.21834888 16.97801607 -15.83261902 16.25193467 -18 15 C-18.3652968 7.69406393 -18.3652968 7.69406393 -16.75 4.625 C-13.60002219 1.7000206 -10.60904231 0.75733827 -6.375 0.375 C-5.59898437 0.30023438 -4.82296875 0.22546875 -4.0234375 0.1484375 C-2 0 -2 0 0 0 Z M-14 4 C-16.80220406 7.15247957 -16.15543702 10.95863741 -16 15 C-14.04196493 15.05389087 -12.08351091 15.09274217 -10.125 15.125 C-9.03445313 15.14820312 -7.94390625 15.17140625 -6.8203125 15.1953125 C-3.8628949 15.30060534 -3.8628949 15.30060534 -2 13 C-0.66965537 9.4080695 -0.92720577 5.78529987 -1 2 C-5.51655637 1.71771523 -9.7891396 2.34404366 -14 4 Z " fill="#C1B8FC" transform="translate(441,103)"/>
<path d="M0 0 C0.625 1.75 0.625 1.75 1 4 C0.6817627 4.61262695 0.36352539 5.22525391 0.03564453 5.85644531 C-1.14370194 8.29743118 -1.23171699 9.85294305 -1.1953125 12.546875 C-1.18886719 13.39121094 -1.18242188 14.23554687 -1.17578125 15.10546875 C-1.15902344 15.97816406 -1.14226563 16.85085937 -1.125 17.75 C-1.11597656 18.63816406 -1.10695313 19.52632812 -1.09765625 20.44140625 C-1.07414577 22.62788058 -1.04128499 24.81380094 -1 27 C-4 23.375 -4 23.375 -4 20 C-5.65 19.67 -7.3 19.34 -9 19 C-9 17.02 -9 15.04 -9 13 C-7.35 13 -5.7 13 -4 13 C-4 11.02 -4 9.04 -4 7 C-3.34 7 -2.68 7 -2 7 C-1.855625 6.030625 -1.71125 5.06125 -1.5625 4.0625 C-1 1 -1 1 0 0 Z " fill="#D9D7F6" transform="translate(519,87)"/>
<path d="M0 0 C2.00124361 0.32578384 4.00102872 0.66055205 6 1 C6.9075 1.144375 7.815 1.28875 8.75 1.4375 C11 2 11 2 13 4 C13.55998192 7.71356429 13.52775569 11.28372032 13 15 C10.2660766 18.47953888 8.51607598 18.89847686 4.1875 19.75 C2.6096875 19.87375 2.6096875 19.87375 1 20 C2.71334264 17.38489808 3.72895348 16.12261628 6.625 14.8125 C9.17866631 13.25537468 9.17866631 13.25537468 9.54296875 10.8125 C9.78849564 8.53514911 9.9472034 6.2894526 10 4 C8.3603125 4.12375 8.3603125 4.12375 6.6875 4.25 C3 4 3 4 1.0625 2 C0.711875 1.34 0.36125 0.68 0 0 Z " fill="#C8C6E7" transform="translate(120,59)"/>
<path d="M0 0 C6.19169602 -0.37908343 10.47040278 0.12000145 16 3 C17 4 17 4 17.09765625 5.84765625 C17.06510417 7.8984375 17.03255208 9.94921875 17 12 C12.49646738 13.75747614 8.82360189 14.19294408 4 14 C4 13.34 4 12.68 4 12 C2.68 11.67 1.36 11.34 0 11 C4.62 10.67 9.24 10.34 14 10 C14.33 8.35 14.66 6.7 15 5 C10.545 4.01 10.545 4.01 6 3 C6 2.34 6 1.68 6 1 C4.02 1 2.04 1 0 1 C0 0.67 0 0.34 0 0 Z " fill="#A294FF" transform="translate(479,106)"/>
<path d="M0 0 C2.1875 1.125 2.1875 1.125 4.1875 3.125 C4.45741906 5.81339385 4.27487357 8.41641936 4.1875 11.125 C3.1975 11.125 2.2075 11.125 1.1875 11.125 C1.1875 8.155 1.1875 5.185 1.1875 2.125 C-0.41657328 2.09791433 -2.0207785 2.07856517 -3.625 2.0625 C-4.51832031 2.05089844 -5.41164063 2.03929687 -6.33203125 2.02734375 C-8.94663791 2.01490033 -8.94663791 2.01490033 -11.8125 3.125 C-12.06265873 6.54142759 -12.06265873 6.54142759 -11.8125 10.125 C-8.72361478 12.18425681 -8.10314073 12.3640374 -4.625 12.25 C-3.366875 12.20875 -2.10875 12.1675 -0.8125 12.125 C-0.8125 12.785 -0.8125 13.445 -0.8125 14.125 C-8.58658638 14.57350498 -8.58658638 14.57350498 -12.375 13.1875 C-14.42622237 10.24444182 -14.3691746 7.74935096 -14.19140625 4.22265625 C-13.8125 2.125 -13.8125 2.125 -12.25 0.0625 C-8.00568468 -1.56992897 -4.30275649 -1.33863535 0 0 Z " fill="#9A8CFE" transform="translate(293.8125,54.875)"/>
<path d="M0 0 C-0.33 1.32 -0.66 2.64 -1 4 C-1.99 4 -2.98 4 -4 4 C-4.0928125 4.928125 -4.0928125 4.928125 -4.1875 5.875 C-4.455625 6.57625 -4.72375 7.2775 -5 8 C-6.64232772 8.72455635 -8.31624835 9.37774395 -10 10 C-11.12122884 10.81023106 -12.2243228 11.64589295 -13.3125 12.5 C-17.04626794 15.28798972 -20.45259161 16.12242996 -25 17 C-24.505 15.515 -24.505 15.515 -24 14 C-22.02 14 -20.04 14 -18 14 C-17.67 13.01 -17.34 12.02 -17 11 C-16.030625 10.5875 -15.06125 10.175 -14.0625 9.75 C-10.63101702 8.24323663 -10.63101702 8.24323663 -9.8125 4.375 C-9.544375 3.26125 -9.27625 2.1475 -9 1 C-5.8035914 -0.06546953 -3.34252724 -0.07427838 0 0 Z " fill="#EAF2FF" transform="translate(137,89)"/>
<path d="M0 0 C0.96164063 0.00515625 1.92328125 0.0103125 2.9140625 0.015625 C4.34878906 0.00789063 4.34878906 0.00789063 5.8125 0 C8.54964908 0.26665636 10.19893707 0.86820413 12.5390625 2.265625 C10.02453349 3.5228895 8.45802743 3.2315029 5.6640625 3.078125 C1.48853495 2.96158046 1.48853495 2.96158046 -1.9609375 5.265625 C-2.4559375 5.925625 -2.9509375 6.585625 -3.4609375 7.265625 C-4.1209375 7.265625 -4.7809375 7.265625 -5.4609375 7.265625 C-5.4609375 12.875625 -5.4609375 18.485625 -5.4609375 24.265625 C-8.31995253 19.97710245 -7.94697124 16.30006403 -7.4609375 11.265625 C-4.948269 0.53409888 -4.948269 0.53409888 0 0 Z " fill="#E8E4FF" transform="translate(236.4609375,86.734375)"/>
<path d="M0 0 C0.66 0.33 1.32 0.66 2 1 C0.29379033 2.88581069 -1.23069459 4.13605066 -3.4375 5.4375 C-7.24994687 7.76216272 -9.55627172 9.60965138 -10.9375 13.9375 C-12.22972815 17.66215761 -14.09786638 19.38807975 -17 22 C-17.66 22.66 -18.32 23.32 -19 24 C-22.125 24.125 -22.125 24.125 -25 24 C-25 23.67 -25 23.34 -25 23 C-24.071875 22.814375 -23.14375 22.62875 -22.1875 22.4375 C-17.86932069 20.4900858 -17.68320969 18.31779878 -16 14 C-13.75 11.5 -13.75 11.5 -11 9 C-9.24364864 7.18839264 -7.49359381 5.37092565 -5.74609375 3.55078125 C-3.90414648 1.91486835 -2.30012839 0.8795992 0 0 Z " fill="#958CFE" transform="translate(101,101)"/>
<path d="M0 0 C0.66 0.99 1.32 1.98 2 3 C1.35675781 2.84144531 0.71351563 2.68289062 0.05078125 2.51953125 C-3.92025805 1.84328512 -7.7907277 1.73731551 -11.8125 1.6875 C-12.58142578 1.65849609 -13.35035156 1.62949219 -14.14257812 1.59960938 C-22.8789081 1.50376778 -28.66949843 5.30254859 -35 11 C-33.38269651 6.79501093 -30.60619312 3.63112803 -27 1 C-18.98035761 -2.30771243 -8.3413547 -1.95223195 0 0 Z " fill="#B9AFFF" transform="translate(555,76)"/>
<path d="M0 0 C0.66 0.33 1.32 0.66 2 1 C0.515 3.475 0.515 3.475 -1 6 C-0.01 6.33 0.98 6.66 2 7 C2 7.66 2 8.32 2 9 C3.09634766 9.36158203 3.09634766 9.36158203 4.21484375 9.73046875 C10.45885463 12.57661677 16.22646354 19.3396953 20 25 C20.75 27.8125 20.75 27.8125 21 30 C20.34 30 19.68 30 19 30 C18.7525 29.2575 18.505 28.515 18.25 27.75 C16.87293684 24.72046105 15.40823207 23.27061881 13 21 C12.236875 20.01 11.47375 19.02 10.6875 18 C8.79372763 15.6664972 7.02291743 14.29093901 4.375 12.875 C1.19738927 11.1096607 -0.35883552 10.18578987 -2 7 C-2.3125 4.375 -2.3125 4.375 -2 2 C-1.34 1.34 -0.68 0.68 0 0 Z " fill="#A7A1FD" transform="translate(53,91)"/>
<path d="M0 0 C5.875 4.75 5.875 4.75 7 7 C7.99 7.33 8.98 7.66 10 8 C10 12 10 12 8.390625 13.74609375 C7.68421875 14.30425781 6.9778125 14.86242187 6.25 15.4375 C3.6832282 17.53799756 1.75778532 19.3076781 -0.3125 21.9375 C-1.1478125 22.9584375 -1.1478125 22.9584375 -2 24 C-2.99 24 -3.98 24 -5 24 C-5.33 22.68 -5.66 21.36 -6 20 C-4.35 20.33 -2.7 20.66 -1 21 C-0.773125 20.443125 -0.54625 19.88625 -0.3125 19.3125 C1 17 1 17 3.625 14.4375 C6.34893236 12.2090916 6.34893236 12.2090916 6 9 C5.34 8.67 4.68 8.34 4 8 C2.25160484 5.34243936 1.00872518 3.02617555 0 0 Z " fill="#8067FE" transform="translate(119,113)"/>
<path d="M0 0 C-1 3 -1 3 -3.5625 4.375 C-4.7690625 5.179375 -4.7690625 5.179375 -6 6 C-6.6450399 9.59379371 -5.83449724 11.90428591 -4 15 C-8.6875 11.484375 -8.6875 11.484375 -10 10 C-10 8.68 -10 7.36 -10 6 C-9.34 6 -8.68 6 -8 6 C-8 5.34 -8 4.68 -8 4 C-10.31 4.66 -12.62 5.32 -15 6 C-11.67898915 1.01848373 -5.90924677 -0.55399189 0 0 Z " fill="#A6B7FE" transform="translate(128,102)"/>
<path d="M0 0 C1.125 3.75 1.125 3.75 0 6 C-0.17878097 8.88980391 -0.27779906 11.73325538 -0.3125 14.625 C-0.34150391 15.40746094 -0.37050781 16.18992187 -0.40039062 16.99609375 C-0.45765084 22.30808025 0.49811595 25.81559412 3.23364258 30.38427734 C3.48654053 30.91746582 3.73943848 31.4506543 4 32 C3.67 32.66 3.34 33.32 3 34 C2.67 32.68 2.34 31.36 2 30 C1.34 30 0.68 30 0 30 C-2.24828052 25.50343896 -2.16682272 21.92127034 -2 17 C-2.99 17 -3.98 17 -5 17 C-5 15.35 -5 13.7 -5 12 C-4.01 12 -3.02 12 -2 12 C-2.04125 10.948125 -2.0825 9.89625 -2.125 8.8125 C-2.00852125 5.25989827 -1.52791932 3.15133359 0 0 Z " fill="#CDC9F6" transform="translate(216,89)"/>
<path d="M0 0 C0.4125 0.37511719 0.825 0.75023438 1.25 1.13671875 C6.09621472 5.43124385 11.18153951 9.27781079 17.11328125 11.953125 C19 13 19 13 21 16 C20.875 18.5625 20.875 18.5625 20 21 C17.9375 22.3125 17.9375 22.3125 16 23 C16.66 22.01 17.32 21.02 18 20 C18.08024658 17.40110217 18.08024658 17.40110217 17 15 C16.26265625 14.70996094 15.5253125 14.41992188 14.765625 14.12109375 C11.47223888 12.78606294 9.4343564 11.01283291 6.8125 8.625 C5.95269531 7.85414062 5.09289062 7.08328125 4.20703125 6.2890625 C2.21515138 4.22314816 1.07465057 2.6295919 0 0 Z " fill="#B0A8FF" transform="translate(89,78)"/>
<path d="M0 0 C0.66 0.33 1.32 0.66 2 1 C1.2575 1.680625 1.2575 1.680625 0.5 2.375 C-1.22609337 3.87635519 -1.22609337 3.87635519 -1 6 C-0.01 6.33 0.98 6.66 2 7 C6 12.25714286 6 12.25714286 6 16 C6.763125 15.175 7.52625 14.35 8.3125 13.5 C11 11 11 11 14 11 C12.35 13.31 10.7 15.62 9 18 C5 17 5 17 3.5625 14.75 C3.046875 13.8425 2.53125 12.935 2 12 C1.13375 11.154375 0.2675 10.30875 -0.625 9.4375 C-2.88661207 7.11637182 -3.6512354 6.13888138 -4 3 C-2.68 2.01 -1.36 1.02 0 0 Z " fill="#7D6EFE" transform="translate(108,65)"/>
<path d="M0 0 C2.97 0.33 5.94 0.66 9 1 C8.67 2.65 8.34 4.3 8 6 C4.625 6.625 4.625 6.625 1 7 C0.34 6.34 -0.32 5.68 -1 5 C-0.625 2.375 -0.625 2.375 0 0 Z " fill="#E3F0F9" transform="translate(61,62)"/>
<path d="M0 0 C0.72265625 1.69140625 0.72265625 1.69140625 1 4 C-3.35571152 11.25951919 -9.79453429 18.34529051 -18 21 C-17.875 19.125 -17.875 19.125 -17 17 C-15.01363702 16.29373761 -13.01151741 15.63106429 -11 15 C-7.69673912 12.33903985 -6.4796741 9.91056726 -5 6 C-4.34 5.67 -3.68 5.34 -3 5 C-1.9590934 3.35857037 -0.95495674 1.69287785 0 0 Z " fill="#949AFE" transform="translate(74,70)"/>
<path d="M0 0 C0.86625 0.639375 1.7325 1.27875 2.625 1.9375 C5.9598812 3.97548296 8.16047478 4.63433093 12 5 C11.625 7.9375 11.625 7.9375 11 11 C10.01 11.495 10.01 11.495 9 12 C5.19585989 10.7319533 4.90932161 9.42086788 3 6 C2.443125 5.278125 1.88625 4.55625 1.3125 3.8125 C0 2 0 2 0 0 Z " fill="#6073F9" transform="translate(117,59)"/>
<path d="M0 0 C2.64 0 5.28 0 8 0 C8.33 0.969375 8.66 1.93875 9 2.9375 C10.58829363 6.12614812 10.58829363 6.12614812 12.91015625 6.48046875 C13.62042969 6.52816406 14.33070312 6.57585938 15.0625 6.625 C16.361875 6.74875 17.66125 6.8725 19 7 C20.5 9.0625 20.5 9.0625 21 11 C20.01 10.34 19.02 9.68 18 9 C16.88625 9.061875 15.7725 9.12375 14.625 9.1875 C9.964646 8.94644721 9.04060246 7.36931624 6 4 C2.94866374 2.74356742 2.23179679 2.9227344 -1 4 C-0.67 2.68 -0.34 1.36 0 0 Z " fill="#E3E4FB" transform="translate(112,52)"/>
<path d="M0 0 C0 3 0 3 -0.5 5.0625 C-1.68232362 12.00865128 -1.30978248 18.35937538 1 25 C-2 24 -2 24 -3.171875 22.3046875 C-5.18169006 16.71133427 -4.49577468 10.05392368 -3.125 4.375 C-2 2 -2 2 0 0 Z " fill="#9585FF" transform="translate(231,90)"/>
<path d="M0 0 C5.95703125 -0.29296875 5.95703125 -0.29296875 8 0 C8.99 0.99 9.98 1.98 11 3 C6.38 3.33 1.76 3.66 -3 4 C-3.33 5.98 -3.66 7.96 -4 10 C-2.68 10.33 -1.36 10.66 0 11 C-0.99 11.495 -0.99 11.495 -2 12 C-4.125 11.0625 -4.125 11.0625 -6 10 C-6.125 7.125 -6.125 7.125 -6 4 C-5.34 3.34 -4.68 2.68 -4 2 C-2.68 2 -1.36 2 0 2 C0 1.34 0 0.68 0 0 Z " fill="#8F7EFF" transform="translate(484,85)"/>
<path d="M0 0 C1.11375 0.3403125 1.11375 0.3403125 2.25 0.6875 C1.3528125 0.7803125 1.3528125 0.7803125 0.4375 0.875 C-2.01939551 1.49867032 -2.01939551 1.49867032 -2.953125 4.2109375 C-4.75 6.6875 -4.75 6.6875 -7.96484375 7.24609375 C-9.80755859 7.18615234 -9.80755859 7.18615234 -11.6875 7.125 C-12.91339844 7.10308594 -14.13929688 7.08117187 -15.40234375 7.05859375 C-18.42916389 6.72306526 -20.20258005 6.27724328 -22.75 4.6875 C-19.69730154 3.16115077 -16.99154311 3.84955556 -13.625 4.125 C-12.34367188 4.22683594 -11.06234375 4.32867187 -9.7421875 4.43359375 C-8.75476563 4.51738281 -7.76734375 4.60117188 -6.75 4.6875 C-6.75 4.0275 -6.75 3.3675 -6.75 2.6875 C-4.35939287 0.29689287 -3.42334736 -0.38901675 0 0 Z " fill="#A89BFF" transform="translate(557.75,112.3125)"/>
<path d="M0 0 C1.15048828 -0.00386719 1.15048828 -0.00386719 2.32421875 -0.0078125 C4.546875 0.03125 4.546875 0.03125 8.25 0.5 C8.91 1.49 9.57 2.48 10.25 3.5 C9.00863281 3.46519531 7.76726562 3.43039063 6.48828125 3.39453125 C4.84636774 3.36638416 3.20443954 3.33908499 1.5625 3.3125 C0.74587891 3.28736328 -0.07074219 3.26222656 -0.91210938 3.23632812 C-5.83796032 3.17649998 -8.59754965 3.60201839 -12.75 6.5 C-13.41 6.17 -14.07 5.84 -14.75 5.5 C-9.90948417 0.62865286 -6.77171887 -0.25553656 0 0 Z " fill="#8775FF" transform="translate(237.75,75.5)"/>
<path d="M0 0 C1.32 0 2.64 0 4 0 C4 0.66 4 1.32 4 2 C0.53846154 5 0.53846154 5 -2 5 C-1.67 6.98 -1.34 8.96 -1 11 C-1.99 10.67 -2.98 10.34 -4 10 C-4 8.02 -4 6.04 -4 4 C-5.65 4 -7.3 4 -9 4 C-9.33 4.99 -9.66 5.98 -10 7 C-11.32 6.67 -12.64 6.34 -14 6 C-13.01 5.67 -12.02 5.34 -11 5 C-10.67 4.34 -10.34 3.68 -10 3 C-7.96875 2.40234375 -7.96875 2.40234375 -5.5 1.9375 C-2.46226779 1.54135157 -2.46226779 1.54135157 0 0 Z " fill="#D9E0FE" transform="translate(102,116)"/>
<path d="M0 0 C0.95003906 0.31710938 1.90007812 0.63421875 2.87890625 0.9609375 C7.52591459 2.28865417 12.13026971 2.44952696 16.9375 2.625 C17.81212891 2.66367188 18.68675781 2.70234375 19.58789062 2.7421875 C21.72494631 2.8356107 23.86244294 2.91885398 26 3 C19.85821122 6.344695 12.00241786 6.00350477 5.3046875 4.32421875 C3.125 3.5 3.125 3.5 0 2 C0 1.34 0 0.68 0 0 Z " fill="#A194FF" transform="translate(471,125)"/>
<path d="M0 0 C0.33 0.66 0.66 1.32 1 2 C3.01669827 3.13350534 3.01669827 3.13350534 5 4 C4.8125 6.3125 4.8125 6.3125 4 9 C-0.44353512 12.73821209 -4.81483282 12.35672575 -10.3125 12.1875 C-11.14845703 12.17396484 -11.98441406 12.16042969 -12.84570312 12.14648438 C-14.89741498 12.11131217 -16.94879275 12.05751048 -19 12 C-19.33 12.99 -19.66 13.98 -20 15 C-20 13.68 -20 12.36 -20 11 C-18.74703125 10.93941406 -17.4940625 10.87882812 -16.203125 10.81640625 C-14.55207276 10.73197744 -12.90103165 10.64733061 -11.25 10.5625 C-10.425 10.52318359 -9.6 10.48386719 -8.75 10.44335938 C-7.95078125 10.40146484 -7.1515625 10.35957031 -6.328125 10.31640625 C-5.5949707 10.27974854 -4.86181641 10.24309082 -4.10644531 10.20532227 C-1.98822395 9.99885215 -0.0480544 9.56867914 2 9 C2.33 7.35 2.66 5.7 3 4 C2.01 4 1.02 4 0 4 C0 2.68 0 1.36 0 0 Z " fill="#C4D6FB" transform="translate(67,113)"/>
<path d="M0 0 C0.88751953 0.59748047 0.88751953 0.59748047 1.79296875 1.20703125 C2.58316406 1.73683594 3.37335937 2.26664062 4.1875 2.8125 C5.42113281 3.64007813 5.42113281 3.64007813 6.6796875 4.484375 C8.34994622 5.57538575 10.06854668 6.59363704 11.8125 7.5625 C14.49195227 9.32328292 16.12078959 11.42478573 18 14 C13.98030822 14 12.02312621 12.00552933 9 9.625 C6.04292954 7.33934167 3.11241289 5.07494193 0 3 C0 2.01 0 1.02 0 0 Z " fill="#E2E0FE" transform="translate(49,98)"/>
<path d="M0 0 C3.46368645 3.24022281 4.89563961 5.13850193 5.16796875 9.99609375 C5.17441406 11.13175781 5.18085938 12.26742187 5.1875 13.4375 C5.20167969 14.57058594 5.21585938 15.70367187 5.23046875 16.87109375 C5.01071135 19.85457979 4.55843386 21.49295423 3 24 C1.67968869 21.35937738 1.97511094 19.44843096 2.0625 16.5 C2.12489488 10.75967091 1.37739014 5.55875308 0 0 Z " fill="#B2A8FC" transform="translate(249,90)"/>
<path d="M0 0 C0.99 0.99 1.98 1.98 3 3 C2.6875 5 2.6875 5 2 7 C2 7.99 2 8.98 2 10 C0.72239767 13.24314437 0.03061766 13.97958823 -3 16 C-5.33199388 16.07905064 -7.66832622 16.08798769 -10 16 C-10 15.67 -10 15.34 -10 15 C-9.0925 14.71125 -8.185 14.4225 -7.25 14.125 C-3.80833525 13.01252932 -3.80833525 13.01252932 0 11 C0 7.37 0 3.74 0 0 Z " fill="#E9EAF1" transform="translate(133,63)"/>
<path d="M0 0 C0.66 0 1.32 0 2 0 C1.34 3.3 0.68 6.6 0 10 C3.63 10 7.26 10 11 10 C11 10.66 11 11.32 11 12 C9.58376784 12.05447047 8.16691809 12.09300508 6.75 12.125 C5.96109375 12.14820312 5.1721875 12.17140625 4.359375 12.1953125 C1.79268059 11.9828378 0.2083933 11.28654105 -2 10 C-2.1953125 3.9453125 -2.1953125 3.9453125 -2 2 C-1.34 1.34 -0.68 0.68 0 0 Z " fill="#D5CFFF" transform="translate(425,108)"/>
<path d="M0 0 C2.3125 0.1875 2.3125 0.1875 5 1 C6.75 3.4375 6.75 3.4375 8 6 C8.33 6.66 8.66 7.32 9 8 C6.33333333 6.66666667 3.66666667 5.33333333 1 4 C-1.31 5.98 -3.62 7.96 -6 10 C-6.66 9.67 -7.32 9.34 -8 9 C-6.37660195 7.29115995 -4.70680947 5.62553283 -3 4 C-2.34 4 -1.68 4 -1 4 C-0.67 2.68 -0.34 1.36 0 0 Z " fill="#634DFE" transform="translate(114,111)"/>
<path d="M0 0 C0 0.66 0 1.32 0 2 C-0.66 2 -1.32 2 -2 2 C-2.33 2.99 -2.66 3.98 -3 5 C-4.65 4.67 -6.3 4.34 -8 4 C-8.33 4.66 -8.66 5.32 -9 6 C-9.66 6 -10.32 6 -11 6 C-11.33 6.99 -11.66 7.98 -12 9 C-14.31 8.67 -16.62 8.34 -19 8 C-18.67 7.34 -18.34 6.68 -18 6 C-15.66989091 5.32215008 -13.33640176 4.65583207 -11 4 C-10.34 3.34 -9.68 2.68 -9 2 C-5.62485432 0.40124678 -3.83441243 0 0 0 Z " fill="#80B3FF" transform="translate(120,106)"/>
<path d="M0 0 C0.99 0.33 1.98 0.66 3 1 C3 1.66 3 2.32 3 3 C3.72574219 3.24492188 4.45148438 3.48984375 5.19921875 3.7421875 C8.31287937 5.14051207 10.31400755 6.81296221 12.8125 9.125 C13.99779297 10.21167969 13.99779297 10.21167969 15.20703125 11.3203125 C16.09455078 12.15175781 16.09455078 12.15175781 17 13 C16.01 13.495 16.01 13.495 15 14 C9.16895138 11.42629578 3.97736381 6.93441698 0 2 C0 1.34 0 0.68 0 0 Z " fill="#DDDAFF" transform="translate(89,76)"/>
<path d="M0 0 C0.66 0.33 1.32 0.66 2 1 C1.67 9.58 1.34 18.16 1 27 C0.01 26.67 -0.98 26.34 -2 26 C-1.34 26 -0.68 26 0 26 C-0.11351517 24.18674449 -0.24112961 22.37436643 -0.375 20.5625 C-0.44460937 19.55316406 -0.51421875 18.54382813 -0.5859375 17.50390625 C-0.72257813 16.67761719 -0.85921875 15.85132812 -1 15 C-1.66 14.67 -2.32 14.34 -3 14 C-3 12.68 -3 11.36 -3 10 C-2.01 10 -1.02 10 0 10 C0 6.7 0 3.4 0 0 Z " fill="#C6C3F3" transform="translate(252,54)"/>
<path d="M0 0 C1.32 0 2.64 0 4 0 C6 3 6 3 5.625 5.6875 C5.41875 6.450625 5.2125 7.21375 5 8 C3.35 8 1.7 8 0 8 C0 5.36 0 2.72 0 0 Z " fill="#ECF6FF" transform="translate(47,104)"/>
<path d="M0 0 C4.875 0.875 4.875 0.875 6 2 C6.4375 4.25 6.4375 4.25 6 7 C3.3125 9.875 3.3125 9.875 0 12 C-2.8125 11.9375 -2.8125 11.9375 -5 11 C-5.33 10.34 -5.66 9.68 -6 9 C-5.05125 9.04125 -4.1025 9.0825 -3.125 9.125 C0.10244856 9.34973818 0.10244856 9.34973818 2 7 C2.64767793 4.42938689 2.64767793 4.42938689 3 2 C2.01 1.67 1.02 1.34 0 1 C0 0.67 0 0.34 0 0 Z " fill="#A89BFF" transform="translate(501,79)"/>
<path d="M0 0 C2.31 0 4.62 0 7 0 C7.87968819 3.43878112 8.2655503 5.36562983 6.875 8.6875 C4.79454776 11.2533911 2.99336148 12.61844855 0 14 C-0.66 13.67 -1.32 13.34 -2 13 C-1.50628906 12.46890625 -1.01257813 11.9378125 -0.50390625 11.390625 C0.13675781 10.68421875 0.77742188 9.9778125 1.4375 9.25 C2.39462891 8.20585938 2.39462891 8.20585938 3.37109375 7.140625 C4.99081325 5.01207275 5.58267256 3.60976595 6 1 C4.02 1 2.04 1 0 1 C0 0.67 0 0.34 0 0 Z " fill="#8AA2F6" transform="translate(123,63)"/>
<path d="M0 0 C1.953125 0.12109375 1.953125 0.12109375 4 1 C5.484375 2.84765625 5.484375 2.84765625 6.75 5.0625 C7.39195313 6.16271484 7.39195313 6.16271484 8.046875 7.28515625 C8.36140625 7.85105469 8.6759375 8.41695312 9 9 C6.53199953 7.84826645 4.95216435 6.95216435 3 5 C-0.12498166 4.6626154 -0.12498166 4.6626154 -2.1875 7 C-2.785625 7.66 -3.38375 8.32 -4 9 C-2.25 2.25 -2.25 2.25 0 0 Z " fill="#A299FD" transform="translate(114,54)"/>
<path d="M0 0 C2.00124361 0.32578384 4.00102872 0.66055205 6 1 C6.9075 1.144375 7.815 1.28875 8.75 1.4375 C11 2 11 2 13 4 C13.125 7.625 13.125 7.625 13 11 C12.34 10.67 11.68 10.34 11 10 C10.375 6.9375 10.375 6.9375 10 4 C8.3603125 4.12375 8.3603125 4.12375 6.6875 4.25 C3 4 3 4 1.0625 2 C0.711875 1.34 0.36125 0.68 0 0 Z " fill="#BCD8F9" transform="translate(120,59)"/>
<path d="M0 0 C1.65 0 3.3 0 5 0 C5 2.31 5 4.62 5 7 C8.63 7 12.26 7 16 7 C16 7.33 16 7.66 16 8 C14.02090602 8.02686553 12.04171029 8.04633375 10.0625 8.0625 C8.96035156 8.07410156 7.85820312 8.08570313 6.72265625 8.09765625 C4 8 4 8 3 7 C2.95936168 5.33382885 2.957279 3.66611905 3 2 C0.525 3.485 0.525 3.485 -2 5 C-1.34 3.35 -0.68 1.7 0 0 Z " fill="#8D7CFF" transform="translate(250,121)"/>
<path d="M0 0 C0.66 0.33 1.32 0.66 2 1 C0.75 3.4375 0.75 3.4375 -1 6 C-2.32594105 6.36162029 -3.65938457 6.69728039 -5 7 C-6.20003343 8.81601365 -6.20003343 8.81601365 -7 11 C-7.66666667 12.33333333 -8.33333333 13.66666667 -9 15 C-9.66 15 -10.32 15 -11 15 C-11.2734375 12.7265625 -11.2734375 12.7265625 -11 10 C-9.1015625 8.0859375 -9.1015625 8.0859375 -6.625 6.375 C-3.6640196 4.29761375 -2.03650308 3.05475462 0 0 Z " fill="#EBE9FE" transform="translate(109,56)"/>
<path d="M0 0 C0.33 0 0.66 0 1 0 C1.10957031 1.03640625 1.21914063 2.0728125 1.33203125 3.140625 C1.49153639 4.51049264 1.65172884 5.88028037 1.8125 7.25 C1.88275391 7.93191406 1.95300781 8.61382812 2.02539062 9.31640625 C2.51594186 13.35854844 3.18297231 16.00546098 6 19 C3.45436943 18.03441599 2.05364796 17.06131195 0.25 15 C-1.53894467 10.70653278 -1.42308538 6.59698532 -1 2 C-0.67 1.34 -0.34 0.68 0 0 Z " fill="#8F7FFE" transform="translate(468,84)"/>
<path d="M0 0 C0.66 0.33 1.32 0.66 2 1 C1.2884375 1.6496875 1.2884375 1.6496875 0.5625 2.3125 C-1.23686957 4.02309613 -1.23686957 4.02309613 -2 7 C-1.4225 7.2475 -0.845 7.495 -0.25 7.75 C2.3002997 9.16683317 4.01785701 10.87627537 6 13 C5.67 13.66 5.34 14.32 5 15 C4.2575 14.21625 3.515 13.4325 2.75 12.625 C0.45566682 10.43495469 -1.12158858 9.17268614 -4 8 C-4.25 5.6875 -4.25 5.6875 -4 3 C-2 1.1875 -2 1.1875 0 0 Z " fill="#BBB0FF" transform="translate(104,118)"/>
<path d="M0 0 C1.98 0 3.96 0 6 0 C6 1.65 6 3.3 6 5 C4.34385343 5.38218767 2.67542976 5.71395102 1 6 C0 5 0 5 -0.0625 2.4375 C-0.041875 1.633125 -0.02125 0.82875 0 0 Z " fill="#E2E5EA" transform="translate(285,138)"/>
<path d="M0 0 C1.65 0 3.3 0 5 0 C5 1.98 5 3.96 5 6 C3.35 6.33 1.7 6.66 0 7 C0 4.69 0 2.38 0 0 Z " fill="#E0E3EA" transform="translate(173,100)"/>
<path d="M0 0 C4.33987206 0.44689758 6.02770308 2.92979832 8.6875 6.1875 C9.47511719 7.12980469 10.26273438 8.07210937 11.07421875 9.04296875 C13.10507828 12.16134738 13.67902046 14.32777642 14 18 C12 16 12 16 10.66796875 13.703125 C8.82153359 10.71077575 6.70464423 8.32319219 4.3125 5.75 C0 1.10047847 0 1.10047847 0 0 Z " fill="#8076FE" transform="translate(61,103)"/>
<path d="M0 0 C1.5625 1.75 1.5625 1.75 3 4 C2.75203633 6.16968209 2.55766393 7.44233607 1 9 C0.80850919 12.63194641 0.80850919 12.63194641 2 16 C-0.475 15.01 -0.475 15.01 -3 14 C-3.1875 11.625 -3.1875 11.625 -3 9 C-2.01 8.34 -1.02 7.68 0 7 C0.25015873 3.41642759 0.25015873 3.41642759 0 0 Z " fill="#BFC7FB" transform="translate(51,84)"/>
<path d="M0 0 C1.98 0 3.96 0 6 0 C6 1.98 6 3.96 6 6 C4.35 6 2.7 6 1 6 C0.67 4.02 0.34 2.04 0 0 Z " fill="#E2E6EA" transform="translate(322,26)"/>
<path d="M0 0 C7.5782984 3.09001233 7.5782984 3.09001233 9.1875 6.5625 C9 9 9 9 7.6875 10.8125 C6 12 6 12 4 12 C4 11.34 4 10.68 4 10 C4.66 10 5.32 10 6 10 C5.67 8.02 5.34 6.04 5 4 C4.360625 3.896875 3.72125 3.79375 3.0625 3.6875 C2.381875 3.460625 1.70125 3.23375 1 3 C0.67 2.01 0.34 1.02 0 0 Z " fill="#8072FF" transform="translate(99,89)"/>
<path d="M0 0 C1.65 0 3.3 0 5 0 C5 1.98 5 3.96 5 6 C3.0625 6.5625 3.0625 6.5625 1 7 C0 6 0 6 -0.0625 2.9375 C-0.041875 1.968125 -0.02125 0.99875 0 0 Z " fill="#E2E5EA" transform="translate(211,63)"/>
<path d="M0 0 C1.65 0 3.3 0 5 0 C5 1.98 5 3.96 5 6 C3.0625 6.5625 3.0625 6.5625 1 7 C0 6 0 6 -0.0625 2.9375 C-0.041875 1.968125 -0.02125 0.99875 0 0 Z " fill="#E1E5EA" transform="translate(24,63)"/>
<path d="M0 0 C0.99 0 1.98 0 3 0 C1.125 4.875 1.125 4.875 0 6 C-1.66617115 6.04063832 -3.33388095 6.042721 -5 6 C-5 4.68 -5 3.36 -5 2 C-4.360625 1.855625 -3.72125 1.71125 -3.0625 1.5625 C-1.02454854 1.18992819 -1.02454854 1.18992819 0 0 Z " fill="#5071FF" transform="translate(81,118)"/>
<path d="M0 0 C2.4609375 -0.36328125 2.4609375 -0.36328125 5.375 -0.3125 C6.33148438 -0.30863281 7.28796875 -0.30476563 8.2734375 -0.30078125 C10.99092807 -0.00100077 12.67011179 0.61421341 15 2 C11.93466836 3.53266582 8.73245728 3.10276471 5.375 3.0625 C4.66859375 3.05798828 3.9621875 3.05347656 3.234375 3.04882812 C1.48954725 3.03703875 -0.255237 3.01910324 -2 3 C-1.34 2.01 -0.68 1.02 0 0 Z " fill="#C6BEFF" transform="translate(234,87)"/>
<path d="M0 0 C0.5534764 2.07553648 1 3.84365964 1 6 C-3.89795918 10.89795918 -3.89795918 10.89795918 -8.375 11.3125 C-9.24125 11.209375 -10.1075 11.10625 -11 11 C-11 10.67 -11 10.34 -11 10 C-10.071875 9.814375 -9.14375 9.62875 -8.1875 9.4375 C-4.65391504 8.25111631 -4.65391504 8.25111631 -3.25 4.4375 C-2.8375 3.303125 -2.425 2.16875 -2 1 C-1.34 0.67 -0.68 0.34 0 0 Z " fill="#728BFF" transform="translate(87,114)"/>
<path d="M0 0 C-3.25085095 2.04339202 -6.42605032 3.61013068 -10 5 C-10.33 5.33 -10.66 5.66 -11 6 C-12.66617115 6.04063832 -14.33388095 6.042721 -16 6 C-15.01 5.67 -14.02 5.34 -13 5 C-12.67 4.01 -12.34 3.02 -12 2 C-10.29296875 1.015625 -10.29296875 1.015625 -8.1875 0.25 C-7.50042969 -0.01296875 -6.81335938 -0.2759375 -6.10546875 -0.546875 C-3.71856031 -1.06056958 -2.29362227 -0.76282269 0 0 Z " fill="#D1E3FF" transform="translate(118,105)"/>
<path d="M0 0 C1.65 0 3.3 0 5 0 C5 1.98 5 3.96 5 6 C3.35 6 1.7 6 0 6 C0 4.02 0 2.04 0 0 Z " fill="#E0E3E8" transform="translate(323,138)"/>
<path d="M0 0 C1.65 0 3.3 0 5 0 C5 1.98 5 3.96 5 6 C3.35 6 1.7 6 0 6 C0 4.02 0 2.04 0 0 Z " fill="#DFE3E8" transform="translate(547,138)"/>
<path d="M0 0 C1.65 0 3.3 0 5 0 C5 1.98 5 3.96 5 6 C3.35 6 1.7 6 0 6 C0 4.02 0 2.04 0 0 Z " fill="#DFE3E8" transform="translate(248,138)"/>
<path d="M0 0 C0.66 0 1.32 0 2 0 C1.25 4.75 1.25 4.75 -1 7 C-3.625 6.625 -3.625 6.625 -6 6 C-5.34 5.01 -4.68 4.02 -4 3 C-3.01 3 -2.02 3 -1 3 C-0.67 2.01 -0.34 1.02 0 0 Z " fill="#AACFFF" transform="translate(134,94)"/>
<path d="M0 0 C1.65 0 3.3 0 5 0 C5 1.98 5 3.96 5 6 C3.35 6 1.7 6 0 6 C0 4.02 0 2.04 0 0 Z " fill="#DFE3E8" transform="translate(547,63)"/>
<path d="M0 0 C3.875 1.875 3.875 1.875 5 3 C5.14115161 5.67058851 5.04247107 8.32432238 5 11 C4.01 11 3.02 11 2 11 C1.93941406 10.37351562 1.87882812 9.74703125 1.81640625 9.1015625 C1.73261719 8.28429688 1.64882813 7.46703125 1.5625 6.625 C1.48128906 5.81289063 1.40007812 5.00078125 1.31640625 4.1640625 C1.10909886 1.95727195 1.10909886 1.95727195 0 0 Z " fill="#C2B9FF" transform="translate(293,55)"/>
<path d="M0 0 C1.65 0 3.3 0 5 0 C5 1.98 5 3.96 5 6 C3.35 6 1.7 6 0 6 C0 4.02 0 2.04 0 0 Z " fill="#E0E4E8" transform="translate(472,26)"/>
<path d="M0 0 C1.65 0 3.3 0 5 0 C5 1.98 5 3.96 5 6 C3.35 6 1.7 6 0 6 C0 4.02 0 2.04 0 0 Z " fill="#DFE3E8" transform="translate(547,26)"/>
<path d="M0 0 C1.65 0 3.3 0 5 0 C5 1.98 5 3.96 5 6 C3.35 6 1.7 6 0 6 C0 4.02 0 2.04 0 0 Z " fill="#DFE3E8" transform="translate(248,26)"/>
<path d="M0 0 C1.65 0 3.3 0 5 0 C5 1.98 5 3.96 5 6 C3.35 6 1.7 6 0 6 C0 4.02 0 2.04 0 0 Z " fill="#E0E3E8" transform="translate(61,26)"/>
<path d="M0 0 C1.65 0 3.3 0 5 0 C5 1.98 5 3.96 5 6 C3.35 5.67 1.7 5.34 0 5 C0 3.35 0 1.7 0 0 Z " fill="#DFE3E8" transform="translate(472,138)"/>
<path d="M0 0 C1.65 0 3.3 0 5 0 C5 1.65 5 3.3 5 5 C3.35 5.33 1.7 5.66 0 6 C0 4.02 0 2.04 0 0 Z " fill="#DFE3E8" transform="translate(435,138)"/>
<path d="M0 0 C1.65 0 3.3 0 5 0 C5 1.65 5 3.3 5 5 C3.35 5.33 1.7 5.66 0 6 C0 4.02 0 2.04 0 0 Z " fill="#DFE3E8" transform="translate(24,138)"/>
<path d="M0 0 C1.65 0 3.3 0 5 0 C5 1.65 5 3.3 5 5 C3.35 5.33 1.7 5.66 0 6 C0 4.02 0 2.04 0 0 Z " fill="#DFE3E8" transform="translate(510,138)"/>
<path d="M0 0 C2.66666667 1.33333333 5.33333333 2.66666667 8 4 C8 4.66 8 5.32 8 6 C11.3 6 14.6 6 18 6 C18 6.33 18 6.66 18 7 C14.04 7 10.08 7 6 7 C6 6.34 6 5.68 6 5 C5.21625 4.71125 4.4325 4.4225 3.625 4.125 C1 3 1 3 -1 1 C-0.67 0.67 -0.34 0.34 0 0 Z " fill="#D2CCFF" transform="translate(441,123)"/>
<path d="M0 0 C1.32 0 2.64 0 4 0 C4.33 1.32 4.66 2.64 5 4 C6.65 4 8.3 4 10 4 C10 4.33 10 4.66 10 5 C6.04 4.67 2.08 4.34 -2 4 C-1.34 2.68 -0.68 1.36 0 0 Z " fill="#82ACFF" transform="translate(71,121)"/>
<path d="M0 0 C2.475 0.99 2.475 0.99 5 2 C4.85969405 5.01657791 4.70648535 7.23841273 2.59765625 9.51171875 C1.11095765 10.73256066 -0.44134898 11.87246522 -2 13 C-2.66 12.67 -3.32 12.34 -4 12 C-2.4375 10.828125 -0.875 9.65625 0.6875 8.484375 C2.44160248 6.8308053 2.44160248 6.8308053 2 3 C1.34 2.67 0.68 2.34 0 2 C0 1.34 0 0.68 0 0 Z " fill="#9D8FFF" transform="translate(560,114)"/>
<path d="M0 0 C1.65 0 3.3 0 5 0 C5 1.65 5 3.3 5 5 C3.35 5.33 1.7 5.66 0 6 C0 4.02 0 2.04 0 0 Z " fill="#DFE3E8" transform="translate(435,63)"/>
<path d="M0 0 C1.65 0 3.3 0 5 0 C5 1.98 5 3.96 5 6 C3.35 5.67 1.7 5.34 0 5 C0 3.35 0 1.7 0 0 Z " fill="#DFE3E8" transform="translate(285,26)"/>
<path d="M0 0 C1.65 0 3.3 0 5 0 C5 1.65 5 3.3 5 5 C3.35 5.33 1.7 5.66 0 6 C0 4.02 0 2.04 0 0 Z " fill="#DFE3E8" transform="translate(510,26)"/>
<path d="M0 0 C1.65 0 3.3 0 5 0 C5 1.65 5 3.3 5 5 C3.35 5.33 1.7 5.66 0 6 C0 4.02 0 2.04 0 0 Z " fill="#DFE3E8" transform="translate(24,26)"/>
<path d="M0 0 C1.32 0 2.64 0 4 0 C4 1.98 4 3.96 4 6 C2.35 5.67 0.7 5.34 -1 5 C-0.67 3.35 -0.34 1.7 0 0 Z " fill="#DFE3E8" transform="translate(137,26)"/>
<path d="M0 0 C6.40141012 -0.51211281 9.98010898 -0.11888494 15 4 C11.79937313 5.60031344 9.27728194 4.03173691 6 3 C6 2.34 6 1.68 6 1 C4.02 1 2.04 1 0 1 C0 0.67 0 0.34 0 0 Z " fill="#CCC5FE" transform="translate(479,106)"/>
<path d="M0 0 C5.98511371 0.34302035 10.75117306 0.82307843 16 4 C12.84547687 5.57726156 10.40515834 4.66986721 7 4 C4.58966507 3.11714476 2.32797336 2.09272219 0 1 C0 0.67 0 0.34 0 0 Z " fill="#CDC5FF" transform="translate(483,95)"/>
<path d="M0 0 C1.32 0.33 2.64 0.66 4 1 C4.25 3.75 4.25 3.75 4 7 C2 9.375 2 9.375 0 11 C-0.66 10.67 -1.32 10.34 -2 10 C-1.360625 9.4225 -0.72125 8.845 -0.0625 8.25 C1.98223868 6.01937599 2.58205199 4.92563609 3 2 C1.68 2.99 0.36 3.98 -1 5 C-0.67 3.35 -0.34 1.7 0 0 Z " fill="#C7E0FF" transform="translate(133,92)"/>
<path d="M0 0 C0.33 0.66 0.66 1.32 1 2 C-0.60875 2.12375 -0.60875 2.12375 -2.25 2.25 C-6.2738451 3.05476902 -7.48169253 3.87729874 -10 7 C-9.625 4.0625 -9.625 4.0625 -9 1 C-6.04335481 -0.4783226 -3.25770263 -0.06032783 0 0 Z " fill="#E5F2FD" transform="translate(58,81)"/>
<path d="M0 0 C1.32 0.33 2.64 0.66 4 1 C4 1.66 4 2.32 4 3 C4.598125 3.2475 5.19625 3.495 5.8125 3.75 C8.34094503 5.19482573 9.55070617 6.48280545 11 9 C10.67 9.99 10.34 10.98 10 12 C9.278125 10.948125 8.55625 9.89625 7.8125 8.8125 C5.46773725 5.5164335 2.93928367 2.7713246 0 0 Z " fill="#E8E4FF" transform="translate(101,127)"/>
<path d="M0 0 C1.65 0 3.3 0 5 0 C5 1.65 5 3.3 5 5 C3.35 5 1.7 5 0 5 C0 3.35 0 1.7 0 0 Z " fill="#DCE1E6" transform="translate(24,101)"/>
<path d="M0 0 C2.64 0 5.28 0 8 0 C7.67 0.66 7.34 1.32 7 2 C6.01 2 5.02 2 4 2 C3.67 3.32 3.34 4.64 3 6 C2.01 6 1.02 6 0 6 C0 4.02 0 2.04 0 0 Z " fill="#D9E9FF" transform="translate(129,91)"/>
<path d="M0 0 C1.32 0 2.64 0 4 0 C4 1.98 4 3.96 4 6 C2.68 6 1.36 6 0 6 C0 4.02 0 2.04 0 0 Z " fill="#DBE0E5" transform="translate(398,138)"/>
<path d="M0 0 C0.99 0 1.98 0 3 0 C3.05391993 1.79133978 3.09275571 3.58313899 3.125 5.375 C3.14820313 6.37273437 3.17140625 7.37046875 3.1953125 8.3984375 C3 11 3 11 1 13 C1.33 10.36 1.66 7.72 2 5 C1.34 5 0.68 5 0 5 C0 3.35 0 1.7 0 0 Z " fill="#D5D6EB" transform="translate(249,101)"/>
<path d="M0 0 C1.32 0 2.64 0 4 0 C4 1.98 4 3.96 4 6 C2.68 6 1.36 6 0 6 C0 4.02 0 2.04 0 0 Z " fill="#DCE0E6" transform="translate(473,63)"/>
<path d="M0 0 C0.6875 1.75 0.6875 1.75 1 4 C-0.125 6.1875 -0.125 6.1875 -2 8 C-4.6875 8.75 -4.6875 8.75 -7 9 C-7 8.34 -7 7.68 -7 7 C-6.38125 6.938125 -5.7625 6.87625 -5.125 6.8125 C-2.73182415 6.17775641 -2.73182415 6.17775641 -1.8125 3.5 C-1.544375 2.675 -1.27625 1.85 -1 1 C-0.67 0.67 -0.34 0.34 0 0 Z " fill="#CBC7FF" transform="translate(111,56)"/>
<path d="M0 0 C1.32 0 2.64 0 4 0 C4 1.98 4 3.96 4 6 C2.68 6 1.36 6 0 6 C0 4.02 0 2.04 0 0 Z " fill="#DBE0E6" transform="translate(398,26)"/>
<path d="M0 0 C1.67542976 0.28604898 3.34385343 0.61781233 5 1 C4.01 1.66 3.02 2.32 2 3 C1.67 3.99 1.34 4.98 1 6 C-1.0625 7.1875 -1.0625 7.1875 -3 8 C-1.125 1.125 -1.125 1.125 0 0 Z " fill="#697BFF" transform="translate(112,109)"/>
<path d="M0 0 C-0.33 0.99 -0.66 1.98 -1 3 C-3.5625 4.1875 -3.5625 4.1875 -6 5 C-6 4.34 -6 3.68 -6 3 C-7.32 2.67 -8.64 2.34 -10 2 C-6.49223216 0.39644899 -3.85645121 -0.22036864 0 0 Z " fill="#9AC6FF" transform="translate(128,102)"/>
<path d="M0 0 C-1.5830577 4.2742558 -4.50568404 6.26531794 -8 9 C-8 6 -8 6 -6.7578125 4.39453125 C-5.94957031 3.61142578 -5.94957031 3.61142578 -5.125 2.8125 C-4.59132813 2.28269531 -4.05765625 1.75289063 -3.5078125 1.20703125 C-2 0 -2 0 0 0 Z " fill="#735FFF" transform="translate(529,80)"/>
<path d="M0 0 C0.75 1.6875 0.75 1.6875 1 4 C-1.13381449 7.2769294 -2.25018012 8.75006004 -6 10 C-5.625 8.0625 -5.625 8.0625 -5 6 C-4.34 5.67 -3.68 5.34 -3 5 C-1.9590934 3.35857037 -0.95495674 1.69287785 0 0 Z " fill="#AFABFF" transform="translate(74,70)"/>
<path d="M0 0 C1.65 0 3.3 0 5 0 C4.67 1.65 4.34 3.3 4 5 C2.68 4.67 1.36 4.34 0 4 C0 2.68 0 1.36 0 0 Z " fill="#ECEFF1" transform="translate(142,63)"/>
<path d="M0 0 C1.32 0 2.64 0 4 0 C4.33 1.32 4.66 2.64 5 4 C3.35 4.33 1.7 4.66 0 5 C0 3.35 0 1.7 0 0 Z " fill="#E9ECEF" transform="translate(117,37)"/>
<path d="M0 0 C1.32 0 2.64 0 4 0 C4 1.65 4 3.3 4 5 C3.01 5.495 3.01 5.495 2 6 C1.34 5.67 0.68 5.34 0 5 C0 3.35 0 1.7 0 0 Z " fill="#E9ECEF" transform="translate(41,138)"/>
<path d="M0 0 C1.37562854 1.28965176 2.70766393 2.62689293 4 4 C4 4.66 4 5.32 4 6 C4.99 6.33 5.98 6.66 7 7 C5.35 7.33 3.7 7.66 2 8 C0.23537317 4.91190305 0 3.76687864 0 0 Z " fill="#AE9EFE" transform="translate(110,131)"/>
<path d="M0 0 C3.33557632 2.9905167 5.15083921 5.93184627 7 10 C3.64501065 8.61172854 1.84949545 7.14414226 0 4 C0 2.68 0 1.36 0 0 Z " fill="#C5BDFF" transform="translate(518,114)"/>
<path d="M0 0 C-2.42130331 2.42130331 -3.80111377 2.52840504 -7.125 3.125 C-8.49011719 3.37636719 -8.49011719 3.37636719 -9.8828125 3.6328125 C-10.58148438 3.75398438 -11.28015625 3.87515625 -12 4 C-9.57836922 -0.84326157 -4.82936706 -0.18574489 0 0 Z " fill="#A79BFD" transform="translate(437,104)"/>
<path d="M0 0 C2.31 0 4.62 0 7 0 C7 0.66 7 1.32 7 2 C8.98 2 10.96 2 13 2 C13 2.33 13 2.66 13 3 C8.07872966 3.16682272 4.49656104 3.24828052 0 1 C0 0.67 0 0.34 0 0 Z " fill="#8271FA" transform="translate(474,103)"/>
<path d="M0 0 C0.79921875 0.01804687 1.5984375 0.03609375 2.421875 0.0546875 C3.02515625 0.07789062 3.6284375 0.10109375 4.25 0.125 C4.25 0.455 4.25 0.785 4.25 1.125 C-0.08085971 2.42425791 -4.26474352 3.468621 -8.75 4.125 C-8.75 3.465 -8.75 2.805 -8.75 2.125 C-5.68753253 0.34090198 -3.52920727 -0.10380021 0 0 Z " fill="#CBC3FF" transform="translate(425.75,97.875)"/>
<path d="M0 0 C2 3 2 3 1.8125 5.125 C1.544375 5.74375 1.27625 6.3625 1 7 C0.01 7.33 -0.98 7.66 -2 8 C-2.20086443 4.28400809 -2.1519437 3.22791555 0 0 Z " fill="#DCE3F2" transform="translate(50,85)"/>
<path d="M0 0 C3.35915158 1.43963639 5.71624938 3.12416589 8 6 C7.60546875 8.1328125 7.60546875 8.1328125 7 10 C6.01886757 8.70982586 5.04015801 7.41780894 4.0625 6.125 C3.24458984 5.04605469 3.24458984 5.04605469 2.41015625 3.9453125 C1 2 1 2 0 0 Z " fill="#BAB1FF" transform="translate(557,79)"/>
<path d="M0 0 C1.98 0 3.96 0 6 0 C6 1.32 6 2.64 6 4 C4.35 3.67 2.7 3.34 1 3 C0.67 2.01 0.34 1.02 0 0 Z " fill="#479AFD" transform="translate(123,64)"/>
<path d="M0 0 C1.32 0 2.64 0 4 0 C3.67 1.65 3.34 3.3 3 5 C2.01 5 1.02 5 0 5 C-0.5625 3.0625 -0.5625 3.0625 -1 1 C-0.67 0.67 -0.34 0.34 0 0 Z " fill="#E9ECEF" transform="translate(92,37)"/>
<path d="M0 0 C1.32 0 2.64 0 4 0 C4 1.65 4 3.3 4 5 C2.68 5 1.36 5 0 5 C0 3.35 0 1.7 0 0 Z " fill="#D8DDE3" transform="translate(585,138)"/>
<path d="M0 0 C1.32 0 2.64 0 4 0 C4 1.65 4 3.3 4 5 C2.68 5 1.36 5 0 5 C0 3.35 0 1.7 0 0 Z " fill="#D8DDE3" transform="translate(211,138)"/>
<path d="M0 0 C1.32 0 2.64 0 4 0 C4 1.65 4 3.3 4 5 C2.68 5 1.36 5 0 5 C0 3.35 0 1.7 0 0 Z " fill="#D9DDE4" transform="translate(361,138)"/>
<path d="M0 0 C1.32 0 2.64 0 4 0 C4 1.65 4 3.3 4 5 C2.68 5 1.36 5 0 5 C0 3.35 0 1.7 0 0 Z " fill="#D8DDE3" transform="translate(585,101)"/>
<path d="M0 0 C1.32 0 2.64 0 4 0 C4 1.65 4 3.3 4 5 C2.68 5 1.36 5 0 5 C0 3.35 0 1.7 0 0 Z " fill="#D9DEE4" transform="translate(585,64)"/>
<path d="M0 0 C1.32 0 2.64 0 4 0 C4 1.65 4 3.3 4 5 C2.68 5 1.36 5 0 5 C0 3.35 0 1.7 0 0 Z " fill="#E8EAEE" transform="translate(41,37)"/>
<path d="M0 0 C1.32 0 2.64 0 4 0 C4 1.65 4 3.3 4 5 C2.68 5 1.36 5 0 5 C0 3.35 0 1.7 0 0 Z " fill="#D8DDE3" transform="translate(585,26)"/>
<path d="M0 0 C1.32 0 2.64 0 4 0 C4 1.65 4 3.3 4 5 C2.68 5 1.36 5 0 5 C0 3.35 0 1.7 0 0 Z " fill="#D8DDE3" transform="translate(211,26)"/>
<path d="M0 0 C1.32 0 2.64 0 4 0 C4 1.65 4 3.3 4 5 C2.68 5 1.36 5 0 5 C0 3.35 0 1.7 0 0 Z " fill="#D9DDE4" transform="translate(435,26)"/>
<path d="M0 0 C1.32 0 2.64 0 4 0 C4 1.65 4 3.3 4 5 C2.68 5 1.36 5 0 5 C0 3.35 0 1.7 0 0 Z " fill="#D9DEE4" transform="translate(361,26)"/>
<path d="M0 0 C1.32 0 2.64 0 4 0 C4 1.65 4 3.3 4 5 C2.68 5 1.36 5 0 5 C0 3.35 0 1.7 0 0 Z " fill="#D8DDE3" transform="translate(174,26)"/>
<path d="M0 0 C1.32 0 2.64 0 4 0 C3.67 1.65 3.34 3.3 3 5 C2.01 5 1.02 5 0 5 C0 3.35 0 1.7 0 0 Z " fill="#D7DCE3" transform="translate(174,138)"/>
<path d="M0 0 C1.32 0 2.64 0 4 0 C3.67 1.65 3.34 3.3 3 5 C2.01 5 1.02 5 0 5 C0 3.35 0 1.7 0 0 Z " fill="#E2E8EE" transform="translate(117,88)"/>
<path d="M0 0 C1.32 0 2.64 0 4 0 C4 1.32 4 2.64 4 4 C2.35 4 0.7 4 -1 4 C-0.67 2.68 -0.34 1.36 0 0 Z " fill="#E9EBEF" transform="translate(92,63)"/>
<path d="M0 0 C1.32 0 2.64 0 4 0 C4 1.65 4 3.3 4 5 C2.68 4.67 1.36 4.34 0 4 C0 2.68 0 1.36 0 0 Z " fill="#D8DDE3" transform="translate(99,26)"/>
<path d="M0 0 C0.99 0 1.98 0 3 0 C3 1.65 3 3.3 3 5 C1.68 4.67 0.36 4.34 -1 4 C-0.67 2.68 -0.34 1.36 0 0 Z " fill="#EAEDF0" transform="translate(143,138)"/>
<path d="M0 0 C0 0.66 0 1.32 0 2 C-2.5 3.625 -2.5 3.625 -5 5 C-5 4.34 -5 3.68 -5 3 C-5.99 2.67 -6.98 2.34 -8 2 C-4.91190305 0.23537317 -3.76687864 0 0 0 Z " fill="#C8CFFE" transform="translate(106,116)"/>
<path d="M0 0 C3.7952131 1.49097658 5.61042731 3.75700849 8 7 C7.01 7 6.02 7 5 7 C3.61328125 5.46875 3.61328125 5.46875 2.3125 3.5 C1.87550781 2.8503125 1.43851563 2.200625 0.98828125 1.53125 C0.49908203 0.77328125 0.49908203 0.77328125 0 0 Z " fill="#D1CFFE" transform="translate(59,105)"/>
<path d="M0 0 C1.32 0.33 2.64 0.66 4 1 C3.67 2.32 3.34 3.64 3 5 C2.01 5 1.02 5 0 5 C0 3.35 0 1.7 0 0 Z " fill="#E8EBEF" transform="translate(67,37)"/>
<path d="M0 0 C0 0.66 0 1.32 0 2 C-0.66 2 -1.32 2 -2 2 C-2.33 2.99 -2.66 3.98 -3 5 C-4.32 4.01 -5.64 3.02 -7 2 C-4 0 -4 0 0 0 Z " fill="#78A0FF" transform="translate(120,106)"/>
<path d="M0 0 C0.99 0 1.98 0 3 0 C3 1.98 3 3.96 3 6 C2.01 5.67 1.02 5.34 0 5 C0 3.35 0 1.7 0 0 Z " fill="#DCEFFF" transform="translate(48,105)"/>
<path d="M0 0 C0.66 0.33 1.32 0.66 2 1 C0.515 3.475 0.515 3.475 -1 6 C-0.01 6.33 0.98 6.66 2 7 C2 7.66 2 8.32 2 9 C0.68 8.34 -0.64 7.68 -2 7 C-2.125 4.625 -2.125 4.625 -2 2 C-1.34 1.34 -0.68 0.68 0 0 Z " fill="#9B97FB" transform="translate(53,91)"/>
</svg>
